<?xml version="1.0" encoding="UTF-8" standalone="no"?><svg xmlns="http://www.w3.org/2000/svg" xmlns:xlink="http://www.w3.org/1999/xlink" contentStyleType="text/css" height="1619px" preserveAspectRatio="none" style="width:2201px;height:1619px;background:#FFFFFF;" version="1.1" viewBox="0 0 2201 1619" width="2201px" zoomAndPan="magnify"><defs/><g><!--MD5=[cc15daeb8b4e6bacf34831777829d2c1]
class Distance--><g id="elem_Distance"><rect codeLine="4" fill="#F1F1F1" height="136.0469" id="Distance" rx="2.5" ry="2.5" style="stroke:#181818;stroke-width:0.5;" width="258" x="1273.5" y="1476.5"/><ellipse cx="1370.75" cy="1492.5" fill="#ADD1B2" rx="11" ry="11" style="stroke:#181818;stroke-width:1.0;"/><path d="M1373.5156,1488.375 Q1373.6719,1488.1563 1373.8594,1488.0469 Q1374.0469,1487.9375 1374.2656,1487.9375 Q1374.6406,1487.9375 1374.875,1488.1953 Q1375.1094,1488.4531 1375.1094,1489.0625 L1375.1094,1490.5156 Q1375.1094,1491.125 1374.875,1491.3906 Q1374.6406,1491.6563 1374.2656,1491.6563 Q1373.9219,1491.6563 1373.7188,1491.4531 Q1373.5156,1491.2656 1373.4063,1490.75 Q1373.3594,1490.3906 1373.1719,1490.2031 Q1372.8438,1489.8281 1372.2344,1489.6094 Q1371.625,1489.3906 1371,1489.3906 Q1370.2344,1489.3906 1369.6016,1489.7188 Q1368.9688,1490.0469 1368.4766,1490.7969 Q1367.9844,1491.5469 1367.9844,1492.5781 L1367.9844,1493.6719 Q1367.9844,1494.9063 1368.875,1495.7266 Q1369.7656,1496.5469 1371.3594,1496.5469 Q1372.2969,1496.5469 1372.9531,1496.2969 Q1373.3438,1496.1406 1373.7656,1495.7031 Q1374.0313,1495.4375 1374.1797,1495.3594 Q1374.3281,1495.2813 1374.5313,1495.2813 Q1374.8594,1495.2813 1375.1172,1495.5391 Q1375.375,1495.7969 1375.375,1496.1406 Q1375.375,1496.4844 1375.0313,1496.8906 Q1374.5313,1497.4688 1373.7344,1497.7969 Q1372.6563,1498.25 1371.3594,1498.25 Q1369.8438,1498.25 1368.6406,1497.625 Q1367.6563,1497.125 1366.9688,1496.0547 Q1366.2813,1494.9844 1366.2813,1493.7031 L1366.2813,1492.5469 Q1366.2813,1491.2188 1366.8984,1490.0703 Q1367.5156,1488.9219 1368.6094,1488.3047 Q1369.7031,1487.6875 1370.9375,1487.6875 Q1371.6719,1487.6875 1372.3203,1487.8516 Q1372.9688,1488.0156 1373.5156,1488.375 Z " fill="#000000"/><text fill="#000000" font-family="sans-serif" font-size="14" lengthAdjust="spacing" textLength="55" x="1391.25" y="1498.2285">Distance</text><line style="stroke:#181818;stroke-width:0.5;" x1="1274.5" x2="1530.5" y1="1508.5" y2="1508.5"/><rect fill="none" height="6" style="stroke:#C82930;stroke-width:1.0;" width="6" x="1281.5" y="1519.8047"/><text fill="#000000" font-family="sans-serif" font-size="14" lengthAdjust="spacing" textLength="80" x="1293.5" y="1527.0332">locID1:String</text><rect fill="none" height="6" style="stroke:#C82930;stroke-width:1.0;" width="6" x="1281.5" y="1537.4141"/><text fill="#000000" font-family="sans-serif" font-size="14" lengthAdjust="spacing" textLength="80" x="1293.5" y="1544.6426">locID2:String</text><rect fill="none" height="6" style="stroke:#C82930;stroke-width:1.0;" width="6" x="1281.5" y="1555.0234"/><text fill="#000000" font-family="sans-serif" font-size="14" lengthAdjust="spacing" textLength="72" x="1293.5" y="1562.252">distance:int</text><ellipse cx="1284.5" cy="1575.6328" fill="none" rx="3" ry="3" style="stroke:#038048;stroke-width:1.0;"/><text fill="#000000" font-family="sans-serif" font-size="14" lengthAdjust="spacing" text-decoration="underline" textLength="210" x="1293.5" y="1579.8613">cmp: final Comparator&lt;Distance&gt;</text><ellipse cx="1284.5" cy="1593.2422" fill="none" rx="3" ry="3" style="stroke:#038048;stroke-width:1.0;"/><text fill="#000000" font-family="sans-serif" font-size="14" lengthAdjust="spacing" text-decoration="underline" textLength="232" x="1293.5" y="1597.4707">sum: final BinaryOperator&lt;Distance&gt;</text><line style="stroke:#181818;stroke-width:0.5;" x1="1274.5" x2="1530.5" y1="1604.5469" y2="1604.5469"/></g><!--MD5=[f8ed75971b0a6b6896f5b0ea32ec4e3d]
class Coordinates--><g id="elem_Coordinates"><rect codeLine="12" fill="#F1F1F1" height="153.6563" id="Coordinates" rx="2.5" ry="2.5" style="stroke:#181818;stroke-width:0.5;" width="182" x="1788.5" y="981.5"/><ellipse cx="1836.75" cy="997.5" fill="#ADD1B2" rx="11" ry="11" style="stroke:#181818;stroke-width:1.0;"/><path d="M1839.5156,993.375 Q1839.6719,993.1563 1839.8594,993.0469 Q1840.0469,992.9375 1840.2656,992.9375 Q1840.6406,992.9375 1840.875,993.1953 Q1841.1094,993.4531 1841.1094,994.0625 L1841.1094,995.5156 Q1841.1094,996.125 1840.875,996.3906 Q1840.6406,996.6563 1840.2656,996.6563 Q1839.9219,996.6563 1839.7188,996.4531 Q1839.5156,996.2656 1839.4063,995.75 Q1839.3594,995.3906 1839.1719,995.2031 Q1838.8438,994.8281 1838.2344,994.6094 Q1837.625,994.3906 1837,994.3906 Q1836.2344,994.3906 1835.6016,994.7188 Q1834.9688,995.0469 1834.4766,995.7969 Q1833.9844,996.5469 1833.9844,997.5781 L1833.9844,998.6719 Q1833.9844,999.9063 1834.875,1000.7266 Q1835.7656,1001.5469 1837.3594,1001.5469 Q1838.2969,1001.5469 1838.9531,1001.2969 Q1839.3438,1001.1406 1839.7656,1000.7031 Q1840.0313,1000.4375 1840.1797,1000.3594 Q1840.3281,1000.2813 1840.5313,1000.2813 Q1840.8594,1000.2813 1841.1172,1000.5391 Q1841.375,1000.7969 1841.375,1001.1406 Q1841.375,1001.4844 1841.0313,1001.8906 Q1840.5313,1002.4688 1839.7344,1002.7969 Q1838.6563,1003.25 1837.3594,1003.25 Q1835.8438,1003.25 1834.6406,1002.625 Q1833.6563,1002.125 1832.9688,1001.0547 Q1832.2813,999.9844 1832.2813,998.7031 L1832.2813,997.5469 Q1832.2813,996.2188 1832.8984,995.0703 Q1833.5156,993.9219 1834.6094,993.3047 Q1835.7031,992.6875 1836.9375,992.6875 Q1837.6719,992.6875 1838.3203,992.8516 Q1838.9688,993.0156 1839.5156,993.375 Z " fill="#000000"/><text fill="#000000" font-family="sans-serif" font-size="14" lengthAdjust="spacing" textLength="77" x="1857.25" y="1003.2285">Coordinates</text><line style="stroke:#181818;stroke-width:0.5;" x1="1789.5" x2="1969.5" y1="1013.5" y2="1013.5"/><rect fill="none" height="6" style="stroke:#C82930;stroke-width:1.0;" width="6" x="1796.5" y="1024.8047"/><text fill="#000000" font-family="sans-serif" font-size="14" lengthAdjust="spacing" text-decoration="underline" textLength="143" x="1808.5" y="1032.0332">MAX_LAT: final double</text><rect fill="none" height="6" style="stroke:#C82930;stroke-width:1.0;" width="6" x="1796.5" y="1042.4141"/><text fill="#000000" font-family="sans-serif" font-size="14" lengthAdjust="spacing" text-decoration="underline" textLength="138" x="1808.5" y="1049.6426">MIN_LAT: final double</text><rect fill="none" height="6" style="stroke:#C82930;stroke-width:1.0;" width="6" x="1796.5" y="1060.0234"/><text fill="#000000" font-family="sans-serif" font-size="14" lengthAdjust="spacing" text-decoration="underline" textLength="156" x="1808.5" y="1067.252">MAX_LONG: final double</text><rect fill="none" height="6" style="stroke:#C82930;stroke-width:1.0;" width="6" x="1796.5" y="1077.6328"/><text fill="#000000" font-family="sans-serif" font-size="14" lengthAdjust="spacing" text-decoration="underline" textLength="151" x="1808.5" y="1084.8613">MIN_LONG: final double</text><rect fill="none" height="6" style="stroke:#C82930;stroke-width:1.0;" width="6" x="1796.5" y="1095.2422"/><text fill="#000000" font-family="sans-serif" font-size="14" lengthAdjust="spacing" textLength="97" x="1808.5" y="1102.4707">latitude: double</text><rect fill="none" height="6" style="stroke:#C82930;stroke-width:1.0;" width="6" x="1796.5" y="1112.8516"/><text fill="#000000" font-family="sans-serif" font-size="14" lengthAdjust="spacing" textLength="109" x="1808.5" y="1120.0801">longitude: double</text><line style="stroke:#181818;stroke-width:0.5;" x1="1789.5" x2="1969.5" y1="1127.1563" y2="1127.1563"/></g><!--MD5=[3fd616f346a44cd59a91eb10b19e157c]
class User--><g id="elem_User"><rect codeLine="21" fill="#F1F1F1" height="118.4375" id="User" rx="2.5" ry="2.5" style="stroke:#181818;stroke-width:0.5;" width="155" x="1325" y="999.5"/><ellipse cx="1383.75" cy="1015.5" fill="#ADD1B2" rx="11" ry="11" style="stroke:#181818;stroke-width:1.0;"/><path d="M1386.5156,1011.375 Q1386.6719,1011.1563 1386.8594,1011.0469 Q1387.0469,1010.9375 1387.2656,1010.9375 Q1387.6406,1010.9375 1387.875,1011.1953 Q1388.1094,1011.4531 1388.1094,1012.0625 L1388.1094,1013.5156 Q1388.1094,1014.125 1387.875,1014.3906 Q1387.6406,1014.6563 1387.2656,1014.6563 Q1386.9219,1014.6563 1386.7188,1014.4531 Q1386.5156,1014.2656 1386.4063,1013.75 Q1386.3594,1013.3906 1386.1719,1013.2031 Q1385.8438,1012.8281 1385.2344,1012.6094 Q1384.625,1012.3906 1384,1012.3906 Q1383.2344,1012.3906 1382.6016,1012.7188 Q1381.9688,1013.0469 1381.4766,1013.7969 Q1380.9844,1014.5469 1380.9844,1015.5781 L1380.9844,1016.6719 Q1380.9844,1017.9063 1381.875,1018.7266 Q1382.7656,1019.5469 1384.3594,1019.5469 Q1385.2969,1019.5469 1385.9531,1019.2969 Q1386.3438,1019.1406 1386.7656,1018.7031 Q1387.0313,1018.4375 1387.1797,1018.3594 Q1387.3281,1018.2813 1387.5313,1018.2813 Q1387.8594,1018.2813 1388.1172,1018.5391 Q1388.375,1018.7969 1388.375,1019.1406 Q1388.375,1019.4844 1388.0313,1019.8906 Q1387.5313,1020.4688 1386.7344,1020.7969 Q1385.6563,1021.25 1384.3594,1021.25 Q1382.8438,1021.25 1381.6406,1020.625 Q1380.6563,1020.125 1379.9688,1019.0547 Q1379.2813,1017.9844 1379.2813,1016.7031 L1379.2813,1015.5469 Q1379.2813,1014.2188 1379.8984,1013.0703 Q1380.5156,1011.9219 1381.6094,1011.3047 Q1382.7031,1010.6875 1383.9375,1010.6875 Q1384.6719,1010.6875 1385.3203,1010.8516 Q1385.9688,1011.0156 1386.5156,1011.375 Z " fill="#000000"/><text fill="#000000" font-family="sans-serif" font-size="14" lengthAdjust="spacing" textLength="29" x="1404.25" y="1021.2285">User</text><line style="stroke:#181818;stroke-width:0.5;" x1="1326" x2="1479" y1="1031.5" y2="1031.5"/><rect fill="none" height="6" style="stroke:#C82930;stroke-width:1.0;" width="6" x="1333" y="1042.8047"/><text fill="#000000" font-family="sans-serif" font-size="14" lengthAdjust="spacing" textLength="86" x="1345" y="1050.0332">userID: String</text><rect fill="none" height="6" style="stroke:#C82930;stroke-width:1.0;" width="6" x="1333" y="1060.4141"/><text fill="#000000" font-family="sans-serif" font-size="14" lengthAdjust="spacing" textLength="129" x="1345" y="1067.6426">userType: UserType</text><rect fill="none" height="6" style="stroke:#C82930;stroke-width:1.0;" width="6" x="1333" y="1078.0234"/><text fill="#000000" font-family="sans-serif" font-size="14" lengthAdjust="spacing" textLength="124" x="1345" y="1085.252">coords:Coordinates</text><rect fill="none" height="6" style="stroke:#C82930;stroke-width:1.0;" width="6" x="1333" y="1095.6328"/><text fill="#000000" font-family="sans-serif" font-size="14" lengthAdjust="spacing" textLength="107" x="1345" y="1102.8613">locationID: String</text><line style="stroke:#181818;stroke-width:0.5;" x1="1326" x2="1479" y1="1109.9375" y2="1109.9375"/></g><!--MD5=[eff099f41b4ab245f31ecac80b8c4343]
class UserType--><g id="elem_UserType"><rect codeLine="37" fill="#F1F1F1" height="100.8281" id="UserType" rx="2.5" ry="2.5" style="stroke:#181818;stroke-width:0.5;" width="93" x="1833" y="845"/><ellipse cx="1848" cy="861" fill="#EB937F" rx="11" ry="11" style="stroke:#181818;stroke-width:1.0;"/><path d="M1846.8594,861.7969 L1846.8594,864.2969 L1851.1875,864.2969 L1851.1875,863.375 Q1851.1875,862.7656 1851.4297,862.5 Q1851.6719,862.2344 1852.0469,862.2344 Q1852.4219,862.2344 1852.6563,862.5 Q1852.8906,862.7656 1852.8906,863.375 L1852.8906,866 L1844.8906,866 Q1844.2656,866 1844.0078,865.7656 Q1843.75,865.5313 1843.75,865.1406 Q1843.75,864.7656 1844.0156,864.5313 Q1844.2813,864.2969 1844.8906,864.2969 L1845.1563,864.2969 L1845.1563,857.6406 L1844.8906,857.6406 Q1844.2656,857.6406 1844.0078,857.4063 Q1843.75,857.1719 1843.75,856.7813 Q1843.75,856.4063 1844.0078,856.1719 Q1844.2656,855.9375 1844.8906,855.9375 L1852.5156,855.9375 L1852.5156,858.5313 Q1852.5156,859.1406 1852.2891,859.3984 Q1852.0625,859.6563 1851.6719,859.6563 Q1851.2969,859.6563 1851.0625,859.3984 Q1850.8281,859.1406 1850.8281,858.5313 L1850.8281,857.6406 L1846.8594,857.6406 L1846.8594,860.0938 L1848.3438,860.0938 Q1848.3438,859.4375 1848.4688,859.25 Q1848.7344,858.8438 1849.2031,858.8438 Q1849.5781,858.8438 1849.8125,859.1016 Q1850.0469,859.3594 1850.0469,859.9688 L1850.0469,861.9375 Q1850.0469,862.4844 1849.9219,862.6719 Q1849.6563,863.0625 1849.2031,863.0625 Q1848.7344,863.0625 1848.4688,862.6563 Q1848.3438,862.4688 1848.3438,861.7969 L1846.8594,861.7969 Z " fill="#000000"/><text fill="#000000" font-family="sans-serif" font-size="14" lengthAdjust="spacing" textLength="61" x="1862" y="866.7285">UserType</text><line style="stroke:#181818;stroke-width:0.5;" x1="1834" x2="1925" y1="877" y2="877"/><text fill="#000000" font-family="sans-serif" font-size="14" lengthAdjust="spacing" textLength="78" x="1839" y="895.5332">PRODUCER</text><text fill="#000000" font-family="sans-serif" font-size="14" lengthAdjust="spacing" textLength="48" x="1839" y="913.1426">CLIENT</text><text fill="#000000" font-family="sans-serif" font-size="14" lengthAdjust="spacing" textLength="68" x="1839" y="930.752">COMPANY</text><line style="stroke:#181818;stroke-width:0.5;" x1="1834" x2="1925" y1="937.8281" y2="937.8281"/></g><!--MD5=[b122bab300f80f5d31a622e2bae54847]
class MapGraph--><g id="elem_MapGraph"><rect codeLine="57" fill="#F1F1F1" height="83.2188" id="MapGraph" rx="2.5" ry="2.5" style="stroke:#181818;stroke-width:0.5;" width="311" x="1247" y="231"/><ellipse cx="1353.25" cy="247" fill="#ADD1B2" rx="11" ry="11" style="stroke:#181818;stroke-width:1.0;"/><path d="M1356.0156,242.875 Q1356.1719,242.6563 1356.3594,242.5469 Q1356.5469,242.4375 1356.7656,242.4375 Q1357.1406,242.4375 1357.375,242.6953 Q1357.6094,242.9531 1357.6094,243.5625 L1357.6094,245.0156 Q1357.6094,245.625 1357.375,245.8906 Q1357.1406,246.1563 1356.7656,246.1563 Q1356.4219,246.1563 1356.2188,245.9531 Q1356.0156,245.7656 1355.9063,245.25 Q1355.8594,244.8906 1355.6719,244.7031 Q1355.3438,244.3281 1354.7344,244.1094 Q1354.125,243.8906 1353.5,243.8906 Q1352.7344,243.8906 1352.1016,244.2188 Q1351.4688,244.5469 1350.9766,245.2969 Q1350.4844,246.0469 1350.4844,247.0781 L1350.4844,248.1719 Q1350.4844,249.4063 1351.375,250.2266 Q1352.2656,251.0469 1353.8594,251.0469 Q1354.7969,251.0469 1355.4531,250.7969 Q1355.8438,250.6406 1356.2656,250.2031 Q1356.5313,249.9375 1356.6797,249.8594 Q1356.8281,249.7813 1357.0313,249.7813 Q1357.3594,249.7813 1357.6172,250.0391 Q1357.875,250.2969 1357.875,250.6406 Q1357.875,250.9844 1357.5313,251.3906 Q1357.0313,251.9688 1356.2344,252.2969 Q1355.1563,252.75 1353.8594,252.75 Q1352.3438,252.75 1351.1406,252.125 Q1350.1563,251.625 1349.4688,250.5547 Q1348.7813,249.4844 1348.7813,248.2031 L1348.7813,247.0469 Q1348.7813,245.7188 1349.3984,244.5703 Q1350.0156,243.4219 1351.1094,242.8047 Q1352.2031,242.1875 1353.4375,242.1875 Q1354.1719,242.1875 1354.8203,242.3516 Q1355.4688,242.5156 1356.0156,242.875 Z " fill="#000000"/><text fill="#000000" font-family="sans-serif" font-size="14" lengthAdjust="spacing" textLength="67" x="1373.75" y="252.7285">MapGraph</text><rect fill="#FFFFFF" height="17.0938" style="stroke:#181818;stroke-width:1.0;stroke-dasharray:2.0,2.0;" width="21" x="1540" y="228"/><text fill="#000000" font-family="sans-serif" font-size="12" font-style="italic" lengthAdjust="spacing" textLength="19" x="1541" y="241.457">V,E</text><line style="stroke:#181818;stroke-width:0.5;" x1="1248" x2="1557" y1="263" y2="263"/><rect fill="none" height="6" style="stroke:#C82930;stroke-width:1.0;" width="6" x="1255" y="274.3047"/><text fill="#000000" font-family="sans-serif" font-size="14" lengthAdjust="spacing" textLength="285" x="1267" y="281.5332">mapVertices: final Map&lt;V, MapVertex&lt;V, E&gt;&gt;</text><rect fill="none" height="6" style="stroke:#C82930;stroke-width:1.0;" width="6" x="1255" y="291.9141"/><text fill="#000000" font-family="sans-serif" font-size="14" lengthAdjust="spacing" textLength="247" x="1267" y="299.1426">mapVertices: Map&lt;V,MapVertex&lt;V,E&gt;&gt;</text><line style="stroke:#181818;stroke-width:0.5;" x1="1248" x2="1557" y1="306.2188" y2="306.2188"/></g><!--MD5=[ef63e85e32976ed6c3ca2a05ce10893d]
class CommonGraph--><g id="elem_CommonGraph"><rect codeLine="62" fill="#F1F1F1" height="118.4375" id="CommonGraph" rx="2.5" ry="2.5" style="stroke:#181818;stroke-width:0.5;" width="178" x="1313.5" y="349.5"/><ellipse cx="1340.65" cy="365.5" fill="#ADD1B2" rx="11" ry="11" style="stroke:#181818;stroke-width:1.0;"/><path d="M1343.4156,361.375 Q1343.5719,361.1563 1343.7594,361.0469 Q1343.9469,360.9375 1344.1656,360.9375 Q1344.5406,360.9375 1344.775,361.1953 Q1345.0094,361.4531 1345.0094,362.0625 L1345.0094,363.5156 Q1345.0094,364.125 1344.775,364.3906 Q1344.5406,364.6563 1344.1656,364.6563 Q1343.8219,364.6563 1343.6188,364.4531 Q1343.4156,364.2656 1343.3063,363.75 Q1343.2594,363.3906 1343.0719,363.2031 Q1342.7438,362.8281 1342.1344,362.6094 Q1341.525,362.3906 1340.9,362.3906 Q1340.1344,362.3906 1339.5016,362.7188 Q1338.8688,363.0469 1338.3766,363.7969 Q1337.8844,364.5469 1337.8844,365.5781 L1337.8844,366.6719 Q1337.8844,367.9063 1338.775,368.7266 Q1339.6656,369.5469 1341.2594,369.5469 Q1342.1969,369.5469 1342.8531,369.2969 Q1343.2438,369.1406 1343.6656,368.7031 Q1343.9313,368.4375 1344.0797,368.3594 Q1344.2281,368.2813 1344.4313,368.2813 Q1344.7594,368.2813 1345.0172,368.5391 Q1345.275,368.7969 1345.275,369.1406 Q1345.275,369.4844 1344.9313,369.8906 Q1344.4313,370.4688 1343.6344,370.7969 Q1342.5563,371.25 1341.2594,371.25 Q1339.7438,371.25 1338.5406,370.625 Q1337.5563,370.125 1336.8688,369.0547 Q1336.1813,367.9844 1336.1813,366.7031 L1336.1813,365.5469 Q1336.1813,364.2188 1336.7984,363.0703 Q1337.4156,361.9219 1338.5094,361.3047 Q1339.6031,360.6875 1340.8375,360.6875 Q1341.5719,360.6875 1342.2203,360.8516 Q1342.8688,361.0156 1343.4156,361.375 Z " fill="#000000"/><text fill="#000000" font-family="sans-serif" font-size="14" lengthAdjust="spacing" textLength="96" x="1357.35" y="371.2285">CommonGraph</text><rect fill="#FFFFFF" height="17.0938" style="stroke:#181818;stroke-width:1.0;stroke-dasharray:2.0,2.0;" width="21" x="1473.5" y="346.5"/><text fill="#000000" font-family="sans-serif" font-size="12" font-style="italic" lengthAdjust="spacing" textLength="19" x="1474.5" y="359.957">V,E</text><line style="stroke:#181818;stroke-width:0.5;" x1="1314.5" x2="1490.5" y1="381.5" y2="381.5"/><polygon fill="none" points="1324.5,390.8047,1328.5,394.8047,1324.5,398.8047,1320.5,394.8047" style="stroke:#B38D22;stroke-width:1.0;"/><text fill="#000000" font-family="sans-serif" font-size="14" lengthAdjust="spacing" textLength="83" x="1333.5" y="400.0332">int numVerts;</text><polygon fill="none" points="1324.5,408.4141,1328.5,412.4141,1324.5,416.4141,1320.5,412.4141" style="stroke:#B38D22;stroke-width:1.0;"/><text fill="#000000" font-family="sans-serif" font-size="14" lengthAdjust="spacing" textLength="90" x="1333.5" y="417.6426">int numEdges;</text><polygon fill="none" points="1324.5,426.0234,1328.5,430.0234,1324.5,434.0234,1320.5,430.0234" style="stroke:#B38D22;stroke-width:1.0;"/><text fill="#000000" font-family="sans-serif" font-size="14" lengthAdjust="spacing" textLength="152" x="1333.5" y="435.252">final boolean isDirected;</text><polygon fill="none" points="1324.5,443.6328,1328.5,447.6328,1324.5,451.6328,1320.5,447.6328" style="stroke:#B38D22;stroke-width:1.0;"/><text fill="#000000" font-family="sans-serif" font-size="14" lengthAdjust="spacing" textLength="138" x="1333.5" y="452.8613">ArrayList&lt;V&gt; vertices;</text><line style="stroke:#181818;stroke-width:0.5;" x1="1314.5" x2="1490.5" y1="459.9375" y2="459.9375"/></g><!--MD5=[c9a68b34cdd1a891bb73479aa7e90558]
class HubNetwork--><g id="elem_HubNetwork"><rect codeLine="43" fill="#F1F1F1" height="188.875" id="HubNetwork" rx="2.5" ry="2.5" style="stroke:#181818;stroke-width:0.5;" width="510" x="1147.5" y="7"/><ellipse cx="1360.75" cy="23" fill="#ADD1B2" rx="11" ry="11" style="stroke:#181818;stroke-width:1.0;"/><path d="M1363.5156,18.875 Q1363.6719,18.6563 1363.8594,18.5469 Q1364.0469,18.4375 1364.2656,18.4375 Q1364.6406,18.4375 1364.875,18.6953 Q1365.1094,18.9531 1365.1094,19.5625 L1365.1094,21.0156 Q1365.1094,21.625 1364.875,21.8906 Q1364.6406,22.1563 1364.2656,22.1563 Q1363.9219,22.1563 1363.7188,21.9531 Q1363.5156,21.7656 1363.4063,21.25 Q1363.3594,20.8906 1363.1719,20.7031 Q1362.8438,20.3281 1362.2344,20.1094 Q1361.625,19.8906 1361,19.8906 Q1360.2344,19.8906 1359.6016,20.2188 Q1358.9688,20.5469 1358.4766,21.2969 Q1357.9844,22.0469 1357.9844,23.0781 L1357.9844,24.1719 Q1357.9844,25.4063 1358.875,26.2266 Q1359.7656,27.0469 1361.3594,27.0469 Q1362.2969,27.0469 1362.9531,26.7969 Q1363.3438,26.6406 1363.7656,26.2031 Q1364.0313,25.9375 1364.1797,25.8594 Q1364.3281,25.7813 1364.5313,25.7813 Q1364.8594,25.7813 1365.1172,26.0391 Q1365.375,26.2969 1365.375,26.6406 Q1365.375,26.9844 1365.0313,27.3906 Q1364.5313,27.9688 1363.7344,28.2969 Q1362.6563,28.75 1361.3594,28.75 Q1359.8438,28.75 1358.6406,28.125 Q1357.6563,27.625 1356.9688,26.5547 Q1356.2813,25.4844 1356.2813,24.2031 L1356.2813,23.0469 Q1356.2813,21.7188 1356.8984,20.5703 Q1357.5156,19.4219 1358.6094,18.8047 Q1359.7031,18.1875 1360.9375,18.1875 Q1361.6719,18.1875 1362.3203,18.3516 Q1362.9688,18.5156 1363.5156,18.875 Z " fill="#000000"/><text fill="#000000" font-family="sans-serif" font-size="14" lengthAdjust="spacing" textLength="75" x="1381.25" y="28.7285">HubNetwork</text><line style="stroke:#181818;stroke-width:0.5;" x1="1148.5" x2="1656.5" y1="39" y2="39"/><ellipse cx="1158.5" cy="53.3047" fill="none" rx="3" ry="3" style="stroke:#038048;stroke-width:1.0;"/><text fill="#000000" font-family="sans-serif" font-size="14" lengthAdjust="spacing" text-decoration="underline" textLength="235" x="1167.5" y="57.5332">distCmp: final Comparator&lt;Distance&gt;</text><ellipse cx="1158.5" cy="70.9141" fill="none" rx="3" ry="3" style="stroke:#038048;stroke-width:1.0;"/><text fill="#000000" font-family="sans-serif" font-size="14" lengthAdjust="spacing" text-decoration="underline" textLength="256" x="1167.5" y="75.1426">distSum: final BinaryOperator&lt;Distance&gt;</text><ellipse cx="1158.5" cy="88.5234" fill="none" rx="3" ry="3" style="stroke:#038048;stroke-width:1.0;"/><text fill="#000000" font-family="sans-serif" font-size="14" lengthAdjust="spacing" text-decoration="underline" textLength="144" x="1167.5" y="92.752">distZero: final Distance</text><line style="stroke:#181818;stroke-width:0.5;" x1="1148.5" x2="1656.5" y1="99.8281" y2="99.8281"/><ellipse cx="1158.5" cy="114.1328" fill="#84BE84" rx="3" ry="3" style="stroke:#038048;stroke-width:1.0;"/><text fill="#000000" font-family="sans-serif" font-size="14" lengthAdjust="spacing" textLength="286" x="1167.5" y="118.3613">boolean addVertices(Collection&lt;User&gt; users)</text><ellipse cx="1158.5" cy="131.7422" fill="#84BE84" rx="3" ry="3" style="stroke:#038048;stroke-width:1.0;"/><text fill="#000000" font-family="sans-serif" font-size="14" lengthAdjust="spacing" textLength="425" x="1167.5" y="135.9707">boolean addEdges(Collection&lt;Triplet&lt;User, User, Distance&gt;&gt; dists)</text><ellipse cx="1158.5" cy="149.3516" fill="#84BE84" rx="3" ry="3" style="stroke:#038048;stroke-width:1.0;"/><text fill="#000000" font-family="sans-serif" font-size="14" lengthAdjust="spacing" textLength="434" x="1167.5" y="153.5801">Distance shortestPath(User origin, User dest, LinkedList&lt;User&gt; path)</text><ellipse cx="1158.5" cy="166.9609" fill="#84BE84" rx="3" ry="3" style="stroke:#038048;stroke-width:1.0;"/><text fill="#000000" font-family="sans-serif" font-size="14" lengthAdjust="spacing" textLength="484" x="1167.5" y="171.1895">List&lt;LinkedList&lt;User&gt;&gt; shortestPaths(User origin, ArrayList&lt;Distance&gt; dists)</text><ellipse cx="1158.5" cy="184.5703" fill="#84BE84" rx="3" ry="3" style="stroke:#038048;stroke-width:1.0;"/><text fill="#000000" font-family="sans-serif" font-size="14" lengthAdjust="spacing" textLength="460" x="1167.5" y="188.7988">LinkedList&lt;Distance&gt; shortestPathsForPool(User origin, List&lt;User&gt; pool)</text></g><!--MD5=[706e73df52f3df32f52be1ce9adb217e]
class Graph--><g id="elem_Graph"><rect codeLine="70" fill="#F1F1F1" height="48" id="Graph" rx="2.5" ry="2.5" style="stroke:#181818;stroke-width:0.5;" width="95" x="1832" y="384.5"/><ellipse cx="1847" cy="400.5" fill="#B4A7E5" rx="11" ry="11" style="stroke:#181818;stroke-width:1.0;"/><path d="M1847.9531,397.1406 L1847.9531,403.7969 L1849.6719,403.7969 Q1850.2813,403.7969 1850.5469,404.0313 Q1850.8125,404.2656 1850.8125,404.6563 Q1850.8125,405.0313 1850.5469,405.2656 Q1850.2813,405.5 1849.6719,405.5 L1844.5313,405.5 Q1843.9219,405.5 1843.6563,405.2656 Q1843.3906,405.0313 1843.3906,404.6406 Q1843.3906,404.2656 1843.6563,404.0313 Q1843.9219,403.7969 1844.5313,403.7969 L1846.25,403.7969 L1846.25,397.1406 L1844.5313,397.1406 Q1843.9219,397.1406 1843.6563,396.9063 Q1843.3906,396.6719 1843.3906,396.2813 Q1843.3906,395.9063 1843.6563,395.6719 Q1843.9219,395.4375 1844.5313,395.4375 L1849.6719,395.4375 Q1850.2813,395.4375 1850.5469,395.6719 Q1850.8125,395.9063 1850.8125,396.2813 Q1850.8125,396.6719 1850.5469,396.9063 Q1850.2813,397.1406 1849.6719,397.1406 L1847.9531,397.1406 Z " fill="#000000"/><text fill="#000000" font-family="sans-serif" font-size="14" font-style="italic" lengthAdjust="spacing" textLength="40" x="1861" y="406.2285">Graph</text><rect fill="#FFFFFF" height="17.0938" style="stroke:#181818;stroke-width:1.0;stroke-dasharray:2.0,2.0;" width="21" x="1909" y="381.5"/><text fill="#000000" font-family="sans-serif" font-size="12" font-style="italic" lengthAdjust="spacing" textLength="19" x="1910" y="394.957">V,E</text><line style="stroke:#181818;stroke-width:0.5;" x1="1833" x2="1926" y1="416.5" y2="416.5"/><line style="stroke:#181818;stroke-width:0.5;" x1="1833" x2="1926" y1="424.5" y2="424.5"/></g><!--MD5=[2e2f8c8f62c4eb3bc59a59727cfd81a5]
class Edge--><g id="elem_Edge"><rect codeLine="78" fill="#F1F1F1" height="100.8281" id="Edge" rx="2.5" ry="2.5" style="stroke:#181818;stroke-width:0.5;" width="113" x="2081" y="358"/><ellipse cx="2117.6" cy="374" fill="#ADD1B2" rx="11" ry="11" style="stroke:#181818;stroke-width:1.0;"/><path d="M2120.3656,369.875 Q2120.5219,369.6563 2120.7094,369.5469 Q2120.8969,369.4375 2121.1156,369.4375 Q2121.4906,369.4375 2121.725,369.6953 Q2121.9594,369.9531 2121.9594,370.5625 L2121.9594,372.0156 Q2121.9594,372.625 2121.725,372.8906 Q2121.4906,373.1563 2121.1156,373.1563 Q2120.7719,373.1563 2120.5688,372.9531 Q2120.3656,372.7656 2120.2563,372.25 Q2120.2094,371.8906 2120.0219,371.7031 Q2119.6938,371.3281 2119.0844,371.1094 Q2118.475,370.8906 2117.85,370.8906 Q2117.0844,370.8906 2116.4516,371.2188 Q2115.8188,371.5469 2115.3266,372.2969 Q2114.8344,373.0469 2114.8344,374.0781 L2114.8344,375.1719 Q2114.8344,376.4063 2115.725,377.2266 Q2116.6156,378.0469 2118.2094,378.0469 Q2119.1469,378.0469 2119.8031,377.7969 Q2120.1938,377.6406 2120.6156,377.2031 Q2120.8813,376.9375 2121.0297,376.8594 Q2121.1781,376.7813 2121.3813,376.7813 Q2121.7094,376.7813 2121.9672,377.0391 Q2122.225,377.2969 2122.225,377.6406 Q2122.225,377.9844 2121.8813,378.3906 Q2121.3813,378.9688 2120.5844,379.2969 Q2119.5063,379.75 2118.2094,379.75 Q2116.6938,379.75 2115.4906,379.125 Q2114.5063,378.625 2113.8188,377.5547 Q2113.1313,376.4844 2113.1313,375.2031 L2113.1313,374.0469 Q2113.1313,372.7188 2113.7484,371.5703 Q2114.3656,370.4219 2115.4594,369.8047 Q2116.5531,369.1875 2117.7875,369.1875 Q2118.5219,369.1875 2119.1703,369.3516 Q2119.8188,369.5156 2120.3656,369.875 Z " fill="#000000"/><text fill="#000000" font-family="sans-serif" font-size="14" lengthAdjust="spacing" textLength="33" x="2136.4" y="379.7285">Edge</text><line style="stroke:#181818;stroke-width:0.5;" x1="2082" x2="2193" y1="390" y2="390"/><rect fill="none" height="6" style="stroke:#C82930;stroke-width:1.0;" width="6" x="2089" y="401.3047"/><text fill="#000000" font-family="sans-serif" font-size="14" lengthAdjust="spacing" textLength="81" x="2101" y="408.5332">V final vOrig;</text><rect fill="none" height="6" style="stroke:#C82930;stroke-width:1.0;" width="6" x="2089" y="418.9141"/><text fill="#000000" font-family="sans-serif" font-size="14" lengthAdjust="spacing" textLength="83" x="2101" y="426.1426">V final vDest;</text><rect fill="none" height="6" style="stroke:#C82930;stroke-width:1.0;" width="6" x="2089" y="436.5234"/><text fill="#000000" font-family="sans-serif" font-size="14" lengthAdjust="spacing" textLength="87" x="2101" y="443.752">E:final weight;</text><line style="stroke:#181818;stroke-width:0.5;" x1="2082" x2="2193" y1="450.8281" y2="450.8281"/></g><!--MD5=[9d5edc7f63e5cdf1e90fe32108e92234]
class WateringController--><g id="elem_WateringController"><rect codeLine="84" fill="#F1F1F1" height="241.7031" id="WateringController" rx="2.5" ry="2.5" style="stroke:#181818;stroke-width:0.5;" width="581" x="7" y="218.5"/><ellipse cx="233.75" cy="234.5" fill="#ADD1B2" rx="11" ry="11" style="stroke:#181818;stroke-width:1.0;"/><path d="M236.5156,230.375 Q236.6719,230.1563 236.8594,230.0469 Q237.0469,229.9375 237.2656,229.9375 Q237.6406,229.9375 237.875,230.1953 Q238.1094,230.4531 238.1094,231.0625 L238.1094,232.5156 Q238.1094,233.125 237.875,233.3906 Q237.6406,233.6563 237.2656,233.6563 Q236.9219,233.6563 236.7188,233.4531 Q236.5156,233.2656 236.4063,232.75 Q236.3594,232.3906 236.1719,232.2031 Q235.8438,231.8281 235.2344,231.6094 Q234.625,231.3906 234,231.3906 Q233.2344,231.3906 232.6016,231.7188 Q231.9688,232.0469 231.4766,232.7969 Q230.9844,233.5469 230.9844,234.5781 L230.9844,235.6719 Q230.9844,236.9063 231.875,237.7266 Q232.7656,238.5469 234.3594,238.5469 Q235.2969,238.5469 235.9531,238.2969 Q236.3438,238.1406 236.7656,237.7031 Q237.0313,237.4375 237.1797,237.3594 Q237.3281,237.2813 237.5313,237.2813 Q237.8594,237.2813 238.1172,237.5391 Q238.375,237.7969 238.375,238.1406 Q238.375,238.4844 238.0313,238.8906 Q237.5313,239.4688 236.7344,239.7969 Q235.6563,240.25 234.3594,240.25 Q232.8438,240.25 231.6406,239.625 Q230.6563,239.125 229.9688,238.0547 Q229.2813,236.9844 229.2813,235.7031 L229.2813,234.5469 Q229.2813,233.2188 229.8984,232.0703 Q230.5156,230.9219 231.6094,230.3047 Q232.7031,229.6875 233.9375,229.6875 Q234.6719,229.6875 235.3203,229.8516 Q235.9688,230.0156 236.5156,230.375 Z " fill="#000000"/><text fill="#000000" font-family="sans-serif" font-size="14" lengthAdjust="spacing" textLength="119" x="254.25" y="240.2285">WateringController</text><line style="stroke:#181818;stroke-width:0.5;" x1="8" x2="587" y1="250.5" y2="250.5"/><rect fill="none" height="6" style="stroke:#C82930;stroke-width:1.0;" width="6" x="15" y="261.8047"/><text fill="#000000" font-family="sans-serif" font-size="14" lengthAdjust="spacing" textLength="176" x="27" y="269.0332">startedDate: final LocalDate</text><rect fill="none" height="6" style="stroke:#C82930;stroke-width:1.0;" width="6" x="15" y="279.4141"/><text fill="#000000" font-family="sans-serif" font-size="14" lengthAdjust="spacing" textLength="156" x="27" y="286.6426">endDate: final LocalDate</text><rect fill="none" height="6" style="stroke:#C82930;stroke-width:1.0;" width="6" x="15" y="297.0234"/><text fill="#000000" font-family="sans-serif" font-size="14" lengthAdjust="spacing" textLength="272" x="27" y="304.252">wateringHours: final SortedSet&lt;LocalTime&gt;</text><rect fill="none" height="6" style="stroke:#C82930;stroke-width:1.0;" width="6" x="15" y="314.6328"/><text fill="#000000" font-family="sans-serif" font-size="14" lengthAdjust="spacing" textLength="467" x="27" y="321.8613">plotData: final LinkedHashMap&lt;String,Pair&lt;Integer, WateringFrequency&gt;&gt;</text><line style="stroke:#181818;stroke-width:0.5;" x1="8" x2="587" y1="328.9375" y2="328.9375"/><ellipse cx="18" cy="343.2422" fill="#84BE84" rx="3" ry="3" style="stroke:#038048;stroke-width:1.0;"/><text fill="#000000" font-family="sans-serif" font-size="14" lengthAdjust="spacing" textLength="278" x="27" y="347.4707">boolean addWateringHours(LocalTime time)</text><ellipse cx="18" cy="360.8516" fill="#84BE84" rx="3" ry="3" style="stroke:#038048;stroke-width:1.0;"/><text fill="#000000" font-family="sans-serif" font-size="14" lengthAdjust="spacing" textLength="271" x="27" y="365.0801">boolean addWateringHour(LocalTime time)</text><ellipse cx="18" cy="378.4609" fill="#84BE84" rx="3" ry="3" style="stroke:#038048;stroke-width:1.0;"/><text fill="#000000" font-family="sans-serif" font-size="14" lengthAdjust="spacing" textLength="555" x="27" y="382.6895">boolean addPlotData(Triplet&lt;String plotID, int duration, WateringFrequency frequency&gt;)</text><ellipse cx="18" cy="396.0703" fill="#84BE84" rx="3" ry="3" style="stroke:#038048;stroke-width:1.0;"/><text fill="#000000" font-family="sans-serif" font-size="14" lengthAdjust="spacing" textLength="499" x="27" y="400.2988">boolean addPlotData(String plotID, int duration, WateringFrequency frequency)</text><ellipse cx="18" cy="413.6797" fill="#84BE84" rx="3" ry="3" style="stroke:#038048;stroke-width:1.0;"/><text fill="#000000" font-family="sans-serif" font-size="14" lengthAdjust="spacing" textLength="179" x="27" y="417.9082">LocalDate[] getValidRange()</text><rect fill="#F24D5C" height="6" style="stroke:#C82930;stroke-width:1.0;" width="6" x="15" y="428.2891"/><text fill="#000000" font-family="sans-serif" font-size="14" lengthAdjust="spacing" textLength="373" x="27" y="435.5176">Option&lt;LocalTime&gt; previousWateringHour(LocalTime time)</text><ellipse cx="18" cy="448.8984" fill="#84BE84" rx="3" ry="3" style="stroke:#038048;stroke-width:1.0;"/><text fill="#000000" font-family="sans-serif" font-size="14" lengthAdjust="spacing" textLength="278" x="27" y="453.127">List&lt;Pair&lt;String,Long&gt;&gt; currentlyWatering()</text></g><!--MD5=[e10a1fe21c327f16d8b04512bb29e968]
class WateringFrequency--><g id="elem_WateringFrequency"><rect codeLine="101" fill="#F1F1F1" height="100.8281" id="WateringFrequency" rx="2.5" ry="2.5" style="stroke:#181818;stroke-width:0.5;" width="157" x="779" y="289"/><ellipse cx="794" cy="305" fill="#EB937F" rx="11" ry="11" style="stroke:#181818;stroke-width:1.0;"/><path d="M792.8594,305.7969 L792.8594,308.2969 L797.1875,308.2969 L797.1875,307.375 Q797.1875,306.7656 797.4297,306.5 Q797.6719,306.2344 798.0469,306.2344 Q798.4219,306.2344 798.6563,306.5 Q798.8906,306.7656 798.8906,307.375 L798.8906,310 L790.8906,310 Q790.2656,310 790.0078,309.7656 Q789.75,309.5313 789.75,309.1406 Q789.75,308.7656 790.0156,308.5313 Q790.2813,308.2969 790.8906,308.2969 L791.1563,308.2969 L791.1563,301.6406 L790.8906,301.6406 Q790.2656,301.6406 790.0078,301.4063 Q789.75,301.1719 789.75,300.7813 Q789.75,300.4063 790.0078,300.1719 Q790.2656,299.9375 790.8906,299.9375 L798.5156,299.9375 L798.5156,302.5313 Q798.5156,303.1406 798.2891,303.3984 Q798.0625,303.6563 797.6719,303.6563 Q797.2969,303.6563 797.0625,303.3984 Q796.8281,303.1406 796.8281,302.5313 L796.8281,301.6406 L792.8594,301.6406 L792.8594,304.0938 L794.3438,304.0938 Q794.3438,303.4375 794.4688,303.25 Q794.7344,302.8438 795.2031,302.8438 Q795.5781,302.8438 795.8125,303.1016 Q796.0469,303.3594 796.0469,303.9688 L796.0469,305.9375 Q796.0469,306.4844 795.9219,306.6719 Q795.6563,307.0625 795.2031,307.0625 Q794.7344,307.0625 794.4688,306.6563 Q794.3438,306.4688 794.3438,305.7969 L792.8594,305.7969 Z " fill="#000000"/><text fill="#000000" font-family="sans-serif" font-size="14" lengthAdjust="spacing" textLength="125" x="808" y="310.7285">WateringFrequency</text><line style="stroke:#181818;stroke-width:0.5;" x1="780" x2="935" y1="321" y2="321"/><text fill="#000000" font-family="sans-serif" font-size="14" lengthAdjust="spacing" textLength="74" x="785" y="339.5332">EVERYDAY</text><text fill="#000000" font-family="sans-serif" font-size="14" lengthAdjust="spacing" textLength="76" x="785" y="357.1426">ODD_DAYS</text><text fill="#000000" font-family="sans-serif" font-size="14" lengthAdjust="spacing" textLength="81" x="785" y="374.752">EVEN_DAYS</text><line style="stroke:#181818;stroke-width:0.5;" x1="780" x2="935" y1="381.8281" y2="381.8281"/></g><!--MD5=[93af8b4494db78ec46e98fad8955a5aa]
class UserStore--><g id="elem_UserStore"><rect codeLine="109" fill="#F1F1F1" height="136.0469" id="UserStore" rx="2.5" ry="2.5" style="stroke:#181818;stroke-width:0.5;" width="551" x="1127" y="828.5"/><ellipse cx="1366.75" cy="844.5" fill="#ADD1B2" rx="11" ry="11" style="stroke:#181818;stroke-width:1.0;"/><path d="M1369.5156,840.375 Q1369.6719,840.1563 1369.8594,840.0469 Q1370.0469,839.9375 1370.2656,839.9375 Q1370.6406,839.9375 1370.875,840.1953 Q1371.1094,840.4531 1371.1094,841.0625 L1371.1094,842.5156 Q1371.1094,843.125 1370.875,843.3906 Q1370.6406,843.6563 1370.2656,843.6563 Q1369.9219,843.6563 1369.7188,843.4531 Q1369.5156,843.2656 1369.4063,842.75 Q1369.3594,842.3906 1369.1719,842.2031 Q1368.8438,841.8281 1368.2344,841.6094 Q1367.625,841.3906 1367,841.3906 Q1366.2344,841.3906 1365.6016,841.7188 Q1364.9688,842.0469 1364.4766,842.7969 Q1363.9844,843.5469 1363.9844,844.5781 L1363.9844,845.6719 Q1363.9844,846.9063 1364.875,847.7266 Q1365.7656,848.5469 1367.3594,848.5469 Q1368.2969,848.5469 1368.9531,848.2969 Q1369.3438,848.1406 1369.7656,847.7031 Q1370.0313,847.4375 1370.1797,847.3594 Q1370.3281,847.2813 1370.5313,847.2813 Q1370.8594,847.2813 1371.1172,847.5391 Q1371.375,847.7969 1371.375,848.1406 Q1371.375,848.4844 1371.0313,848.8906 Q1370.5313,849.4688 1369.7344,849.7969 Q1368.6563,850.25 1367.3594,850.25 Q1365.8438,850.25 1364.6406,849.625 Q1363.6563,849.125 1362.9688,848.0547 Q1362.2813,846.9844 1362.2813,845.7031 L1362.2813,844.5469 Q1362.2813,843.2188 1362.8984,842.0703 Q1363.5156,840.9219 1364.6094,840.3047 Q1365.7031,839.6875 1366.9375,839.6875 Q1367.6719,839.6875 1368.3203,839.8516 Q1368.9688,840.0156 1369.5156,840.375 Z " fill="#000000"/><text fill="#000000" font-family="sans-serif" font-size="14" lengthAdjust="spacing" textLength="63" x="1387.25" y="850.2285">UserStore</text><line style="stroke:#181818;stroke-width:0.5;" x1="1128" x2="1677" y1="860.5" y2="860.5"/><rect fill="none" height="6" style="stroke:#C82930;stroke-width:1.0;" width="6" x="1135" y="871.8047"/><text fill="#000000" font-family="sans-serif" font-size="14" lengthAdjust="spacing" textLength="156" x="1147" y="879.0332">users: Map&lt;String,User&gt;</text><line style="stroke:#181818;stroke-width:0.5;" x1="1128" x2="1677" y1="886.1094" y2="886.1094"/><ellipse cx="1138" cy="900.4141" fill="#84BE84" rx="3" ry="3" style="stroke:#038048;stroke-width:1.0;"/><text fill="#000000" font-family="sans-serif" font-size="14" lengthAdjust="spacing" textLength="179" x="1147" y="904.6426">boolean addUser(User user)</text><ellipse cx="1138" cy="918.0234" fill="#84BE84" rx="3" ry="3" style="stroke:#038048;stroke-width:1.0;"/><text fill="#000000" font-family="sans-serif" font-size="14" lengthAdjust="spacing" textLength="525" x="1147" y="922.252">boolean addUser(String userID, String locationID, double latitude, double longitude)</text><ellipse cx="1138" cy="935.6328" fill="#84BE84" rx="3" ry="3" style="stroke:#038048;stroke-width:1.0;"/><text fill="#000000" font-family="sans-serif" font-size="14" lengthAdjust="spacing" textLength="330" x="1147" y="939.8613">boolean addUser(Collection &lt;User&gt; usersCollection)</text><ellipse cx="1138" cy="953.2422" fill="#84BE84" rx="3" ry="3" style="stroke:#038048;stroke-width:1.0;"/><text fill="#000000" font-family="sans-serif" font-size="14" lengthAdjust="spacing" textLength="224" x="1147" y="957.4707">Optional&lt;User&gt; getUser(String key)</text></g><!--MD5=[2b10236ac8bf20578c475e31272f454d]
class DistanceStore--><g id="elem_DistanceStore"><rect codeLine="118" fill="#F1F1F1" height="118.4375" id="DistanceStore" rx="2.5" ry="2.5" style="stroke:#181818;stroke-width:0.5;" width="388" x="1208.5" y="1323.5"/><ellipse cx="1353.75" cy="1339.5" fill="#ADD1B2" rx="11" ry="11" style="stroke:#181818;stroke-width:1.0;"/><path d="M1356.5156,1335.375 Q1356.6719,1335.1563 1356.8594,1335.0469 Q1357.0469,1334.9375 1357.2656,1334.9375 Q1357.6406,1334.9375 1357.875,1335.1953 Q1358.1094,1335.4531 1358.1094,1336.0625 L1358.1094,1337.5156 Q1358.1094,1338.125 1357.875,1338.3906 Q1357.6406,1338.6563 1357.2656,1338.6563 Q1356.9219,1338.6563 1356.7188,1338.4531 Q1356.5156,1338.2656 1356.4063,1337.75 Q1356.3594,1337.3906 1356.1719,1337.2031 Q1355.8438,1336.8281 1355.2344,1336.6094 Q1354.625,1336.3906 1354,1336.3906 Q1353.2344,1336.3906 1352.6016,1336.7188 Q1351.9688,1337.0469 1351.4766,1337.7969 Q1350.9844,1338.5469 1350.9844,1339.5781 L1350.9844,1340.6719 Q1350.9844,1341.9063 1351.875,1342.7266 Q1352.7656,1343.5469 1354.3594,1343.5469 Q1355.2969,1343.5469 1355.9531,1343.2969 Q1356.3438,1343.1406 1356.7656,1342.7031 Q1357.0313,1342.4375 1357.1797,1342.3594 Q1357.3281,1342.2813 1357.5313,1342.2813 Q1357.8594,1342.2813 1358.1172,1342.5391 Q1358.375,1342.7969 1358.375,1343.1406 Q1358.375,1343.4844 1358.0313,1343.8906 Q1357.5313,1344.4688 1356.7344,1344.7969 Q1355.6563,1345.25 1354.3594,1345.25 Q1352.8438,1345.25 1351.6406,1344.625 Q1350.6563,1344.125 1349.9688,1343.0547 Q1349.2813,1341.9844 1349.2813,1340.7031 L1349.2813,1339.5469 Q1349.2813,1338.2188 1349.8984,1337.0703 Q1350.5156,1335.9219 1351.6094,1335.3047 Q1352.7031,1334.6875 1353.9375,1334.6875 Q1354.6719,1334.6875 1355.3203,1334.8516 Q1355.9688,1335.0156 1356.5156,1335.375 Z " fill="#000000"/><text fill="#000000" font-family="sans-serif" font-size="14" lengthAdjust="spacing" textLength="89" x="1374.25" y="1345.2285">DistanceStore</text><line style="stroke:#181818;stroke-width:0.5;" x1="1209.5" x2="1595.5" y1="1355.5" y2="1355.5"/><rect fill="none" height="6" style="stroke:#C82930;stroke-width:1.0;" width="6" x="1216.5" y="1366.8047"/><text fill="#000000" font-family="sans-serif" font-size="14" lengthAdjust="spacing" textLength="186" x="1228.5" y="1374.0332">distances:final Set&lt;Distance&gt;</text><line style="stroke:#181818;stroke-width:0.5;" x1="1209.5" x2="1595.5" y1="1381.1094" y2="1381.1094"/><ellipse cx="1219.5" cy="1395.4141" fill="#84BE84" rx="3" ry="3" style="stroke:#038048;stroke-width:1.0;"/><text fill="#000000" font-family="sans-serif" font-size="14" lengthAdjust="spacing" textLength="225" x="1228.5" y="1399.6426">boolean addDistance(Distance dist)</text><ellipse cx="1219.5" cy="1413.0234" fill="#84BE84" rx="3" ry="3" style="stroke:#038048;stroke-width:1.0;"/><text fill="#000000" font-family="sans-serif" font-size="14" lengthAdjust="spacing" textLength="362" x="1228.5" y="1417.252">boolean addDistance(String org, String dest, int distance)</text><ellipse cx="1219.5" cy="1430.6328" fill="#84BE84" rx="3" ry="3" style="stroke:#038048;stroke-width:1.0;"/><text fill="#000000" font-family="sans-serif" font-size="14" lengthAdjust="spacing" textLength="321" x="1228.5" y="1434.8613">boolean addDistances(Collection &lt;Distance&gt; dists)</text></g><!--MD5=[b2b1c72b448dfe241a0c28e2d1440a67]
class WateringControllerStore--><g id="elem_WateringControllerStore"><rect codeLine="126" fill="#F1F1F1" height="136.0469" id="WateringControllerStore" rx="2.5" ry="2.5" style="stroke:#181818;stroke-width:0.5;" width="374" x="110.5" y="47.5"/><ellipse cx="216.75" cy="63.5" fill="#ADD1B2" rx="11" ry="11" style="stroke:#181818;stroke-width:1.0;"/><path d="M219.5156,59.375 Q219.6719,59.1563 219.8594,59.0469 Q220.0469,58.9375 220.2656,58.9375 Q220.6406,58.9375 220.875,59.1953 Q221.1094,59.4531 221.1094,60.0625 L221.1094,61.5156 Q221.1094,62.125 220.875,62.3906 Q220.6406,62.6563 220.2656,62.6563 Q219.9219,62.6563 219.7188,62.4531 Q219.5156,62.2656 219.4063,61.75 Q219.3594,61.3906 219.1719,61.2031 Q218.8438,60.8281 218.2344,60.6094 Q217.625,60.3906 217,60.3906 Q216.2344,60.3906 215.6016,60.7188 Q214.9688,61.0469 214.4766,61.7969 Q213.9844,62.5469 213.9844,63.5781 L213.9844,64.6719 Q213.9844,65.9063 214.875,66.7266 Q215.7656,67.5469 217.3594,67.5469 Q218.2969,67.5469 218.9531,67.2969 Q219.3438,67.1406 219.7656,66.7031 Q220.0313,66.4375 220.1797,66.3594 Q220.3281,66.2813 220.5313,66.2813 Q220.8594,66.2813 221.1172,66.5391 Q221.375,66.7969 221.375,67.1406 Q221.375,67.4844 221.0313,67.8906 Q220.5313,68.4688 219.7344,68.7969 Q218.6563,69.25 217.3594,69.25 Q215.8438,69.25 214.6406,68.625 Q213.6563,68.125 212.9688,67.0547 Q212.2813,65.9844 212.2813,64.7031 L212.2813,63.5469 Q212.2813,62.2188 212.8984,61.0703 Q213.5156,59.9219 214.6094,59.3047 Q215.7031,58.6875 216.9375,58.6875 Q217.6719,58.6875 218.3203,58.8516 Q218.9688,59.0156 219.5156,59.375 Z " fill="#000000"/><text fill="#000000" font-family="sans-serif" font-size="14" lengthAdjust="spacing" textLength="153" x="237.25" y="69.2285">WateringControllerStore</text><line style="stroke:#181818;stroke-width:0.5;" x1="111.5" x2="483.5" y1="79.5" y2="79.5"/><rect fill="none" height="6" style="stroke:#C82930;stroke-width:1.0;" width="6" x="118.5" y="90.8047"/><text fill="#000000" font-family="sans-serif" font-size="14" lengthAdjust="spacing" textLength="348" x="130.5" y="98.0332">store: LinkedHashMap&lt;LocalDate, WateringController&gt;</text><line style="stroke:#181818;stroke-width:0.5;" x1="111.5" x2="483.5" y1="105.1094" y2="105.1094"/><ellipse cx="121.5" cy="119.4141" fill="#84BE84" rx="3" ry="3" style="stroke:#038048;stroke-width:1.0;"/><text fill="#000000" font-family="sans-serif" font-size="14" lengthAdjust="spacing" textLength="293" x="130.5" y="123.6426">boolean addController(WateringController ctrl)</text><ellipse cx="121.5" cy="137.0234" fill="#84BE84" rx="3" ry="3" style="stroke:#038048;stroke-width:1.0;"/><text fill="#000000" font-family="sans-serif" font-size="14" lengthAdjust="spacing" textLength="331" x="130.5" y="141.252">boolean addController(Collection&lt;LocalTime&gt; times)</text><ellipse cx="121.5" cy="154.6328" fill="#84BE84" rx="3" ry="3" style="stroke:#038048;stroke-width:1.0;"/><text fill="#000000" font-family="sans-serif" font-size="14" lengthAdjust="spacing" textLength="53" x="130.5" y="158.8613">int size()</text><ellipse cx="121.5" cy="172.2422" fill="#84BE84" rx="3" ry="3" style="stroke:#038048;stroke-width:1.0;"/><text fill="#000000" font-family="sans-serif" font-size="14" lengthAdjust="spacing" textLength="143" x="130.5" y="176.4707">boolean clearExpired()</text></g><!--MD5=[c8c8995f11fe98b4afbfdb938e56d41c]
class BundleStore--><g id="elem_BundleStore"><rect codeLine="135" fill="#F1F1F1" height="136.0469" id="BundleStore" rx="2.5" ry="2.5" style="stroke:#181818;stroke-width:0.5;" width="350" x="682.5" y="515.5"/><ellipse cx="814.25" cy="531.5" fill="#ADD1B2" rx="11" ry="11" style="stroke:#181818;stroke-width:1.0;"/><path d="M817.0156,527.375 Q817.1719,527.1563 817.3594,527.0469 Q817.5469,526.9375 817.7656,526.9375 Q818.1406,526.9375 818.375,527.1953 Q818.6094,527.4531 818.6094,528.0625 L818.6094,529.5156 Q818.6094,530.125 818.375,530.3906 Q818.1406,530.6563 817.7656,530.6563 Q817.4219,530.6563 817.2188,530.4531 Q817.0156,530.2656 816.9063,529.75 Q816.8594,529.3906 816.6719,529.2031 Q816.3438,528.8281 815.7344,528.6094 Q815.125,528.3906 814.5,528.3906 Q813.7344,528.3906 813.1016,528.7188 Q812.4688,529.0469 811.9766,529.7969 Q811.4844,530.5469 811.4844,531.5781 L811.4844,532.6719 Q811.4844,533.9063 812.375,534.7266 Q813.2656,535.5469 814.8594,535.5469 Q815.7969,535.5469 816.4531,535.2969 Q816.8438,535.1406 817.2656,534.7031 Q817.5313,534.4375 817.6797,534.3594 Q817.8281,534.2813 818.0313,534.2813 Q818.3594,534.2813 818.6172,534.5391 Q818.875,534.7969 818.875,535.1406 Q818.875,535.4844 818.5313,535.8906 Q818.0313,536.4688 817.2344,536.7969 Q816.1563,537.25 814.8594,537.25 Q813.3438,537.25 812.1406,536.625 Q811.1563,536.125 810.4688,535.0547 Q809.7813,533.9844 809.7813,532.7031 L809.7813,531.5469 Q809.7813,530.2188 810.3984,529.0703 Q811.0156,527.9219 812.1094,527.3047 Q813.2031,526.6875 814.4375,526.6875 Q815.1719,526.6875 815.8203,526.8516 Q816.4688,527.0156 817.0156,527.375 Z " fill="#000000"/><text fill="#000000" font-family="sans-serif" font-size="14" lengthAdjust="spacing" textLength="78" x="834.75" y="537.2285">BundleStore</text><line style="stroke:#181818;stroke-width:0.5;" x1="683.5" x2="1031.5" y1="547.5" y2="547.5"/><rect fill="none" height="6" style="stroke:#C82930;stroke-width:1.0;" width="6" x="690.5" y="558.8047"/><text fill="#000000" font-family="sans-serif" font-size="14" lengthAdjust="spacing" textLength="297" x="702.5" y="566.0332">bundles: HashMap&lt;Integer,ArrayList&lt;Bundle&gt;&gt;</text><line style="stroke:#181818;stroke-width:0.5;" x1="683.5" x2="1031.5" y1="573.1094" y2="573.1094"/><ellipse cx="693.5" cy="587.4141" fill="#84BE84" rx="3" ry="3" style="stroke:#038048;stroke-width:1.0;"/><text fill="#000000" font-family="sans-serif" font-size="14" lengthAdjust="spacing" textLength="250" x="702.5" y="591.6426">boolean addBundle(Bundel newBundle)</text><ellipse cx="693.5" cy="605.0234" fill="#84BE84" rx="3" ry="3" style="stroke:#038048;stroke-width:1.0;"/><text fill="#000000" font-family="sans-serif" font-size="14" lengthAdjust="spacing" textLength="243" x="702.5" y="609.252">ArrayList&lt;Bundle&gt; getBundles(int day)</text><ellipse cx="693.5" cy="622.6328" fill="#84BE84" rx="3" ry="3" style="stroke:#038048;stroke-width:1.0;"/><text fill="#000000" font-family="sans-serif" font-size="14" lengthAdjust="spacing" textLength="324" x="702.5" y="626.8613">HashMap&lt;Integer,ArrayList&lt;Bundle&gt;&gt; getBundles()</text><ellipse cx="693.5" cy="640.2422" fill="#84BE84" rx="3" ry="3" style="stroke:#038048;stroke-width:1.0;"/><text fill="#000000" font-family="sans-serif" font-size="14" lengthAdjust="spacing" textLength="145" x="702.5" y="644.4707">BundleStore getCopy()</text></g><!--MD5=[536e464d8b1e54faa737ee1f4ae6355d]
class Bundle--><g id="elem_Bundle"><rect codeLine="145" fill="#F1F1F1" height="153.6563" id="Bundle" rx="2.5" ry="2.5" style="stroke:#181818;stroke-width:0.5;" width="368" x="673.5" y="686.5"/><ellipse cx="831.25" cy="702.5" fill="#ADD1B2" rx="11" ry="11" style="stroke:#181818;stroke-width:1.0;"/><path d="M834.0156,698.375 Q834.1719,698.1563 834.3594,698.0469 Q834.5469,697.9375 834.7656,697.9375 Q835.1406,697.9375 835.375,698.1953 Q835.6094,698.4531 835.6094,699.0625 L835.6094,700.5156 Q835.6094,701.125 835.375,701.3906 Q835.1406,701.6563 834.7656,701.6563 Q834.4219,701.6563 834.2188,701.4531 Q834.0156,701.2656 833.9063,700.75 Q833.8594,700.3906 833.6719,700.2031 Q833.3438,699.8281 832.7344,699.6094 Q832.125,699.3906 831.5,699.3906 Q830.7344,699.3906 830.1016,699.7188 Q829.4688,700.0469 828.9766,700.7969 Q828.4844,701.5469 828.4844,702.5781 L828.4844,703.6719 Q828.4844,704.9063 829.375,705.7266 Q830.2656,706.5469 831.8594,706.5469 Q832.7969,706.5469 833.4531,706.2969 Q833.8438,706.1406 834.2656,705.7031 Q834.5313,705.4375 834.6797,705.3594 Q834.8281,705.2813 835.0313,705.2813 Q835.3594,705.2813 835.6172,705.5391 Q835.875,705.7969 835.875,706.1406 Q835.875,706.4844 835.5313,706.8906 Q835.0313,707.4688 834.2344,707.7969 Q833.1563,708.25 831.8594,708.25 Q830.3438,708.25 829.1406,707.625 Q828.1563,707.125 827.4688,706.0547 Q826.7813,704.9844 826.7813,703.7031 L826.7813,702.5469 Q826.7813,701.2188 827.3984,700.0703 Q828.0156,698.9219 829.1094,698.3047 Q830.2031,697.6875 831.4375,697.6875 Q832.1719,697.6875 832.8203,697.8516 Q833.4688,698.0156 834.0156,698.375 Z " fill="#000000"/><text fill="#000000" font-family="sans-serif" font-size="14" lengthAdjust="spacing" textLength="44" x="851.75" y="708.2285">Bundle</text><line style="stroke:#181818;stroke-width:0.5;" x1="674.5" x2="1040.5" y1="718.5" y2="718.5"/><rect fill="none" height="6" style="stroke:#C82930;stroke-width:1.0;" width="6" x="681.5" y="729.8047"/><text fill="#000000" font-family="sans-serif" font-size="14" lengthAdjust="spacing" textLength="46" x="693.5" y="737.0332">day: int</text><rect fill="none" height="6" style="stroke:#C82930;stroke-width:1.0;" width="6" x="681.5" y="747.4141"/><text fill="#000000" font-family="sans-serif" font-size="14" lengthAdjust="spacing" textLength="70" x="693.5" y="754.6426">client: User</text><rect fill="none" height="6" style="stroke:#C82930;stroke-width:1.0;" width="6" x="681.5" y="765.0234"/><text fill="#000000" font-family="sans-serif" font-size="14" lengthAdjust="spacing" textLength="158" x="693.5" y="772.252">orders: ArrayList&lt;Order&gt;</text><rect fill="none" height="6" style="stroke:#C82930;stroke-width:1.0;" width="6" x="681.5" y="782.6328"/><text fill="#000000" font-family="sans-serif" font-size="14" lengthAdjust="spacing" textLength="127" x="693.5" y="789.8613">state: DeliverieState</text><line style="stroke:#181818;stroke-width:0.5;" x1="674.5" x2="1040.5" y1="796.9375" y2="796.9375"/><ellipse cx="684.5" cy="811.2422" fill="#84BE84" rx="3" ry="3" style="stroke:#038048;stroke-width:1.0;"/><text fill="#000000" font-family="sans-serif" font-size="14" lengthAdjust="spacing" textLength="155" x="693.5" y="815.4707">DeliverieState getState()</text><ellipse cx="684.5" cy="828.8516" fill="#84BE84" rx="3" ry="3" style="stroke:#038048;stroke-width:1.0;"/><text fill="#000000" font-family="sans-serif" font-size="14" lengthAdjust="spacing" textLength="342" x="693.5" y="833.0801">boolean addNewOrder(Product product, float quantity)</text></g><!--MD5=[cf4d6237fcae255cd2e1656cf84a30e2]
class Order--><g id="elem_Order"><rect codeLine="158" fill="#F1F1F1" height="153.6563" id="Order" rx="2.5" ry="2.5" style="stroke:#181818;stroke-width:0.5;" width="190" x="1307.5" y="502.5"/><ellipse cx="1379.75" cy="518.5" fill="#ADD1B2" rx="11" ry="11" style="stroke:#181818;stroke-width:1.0;"/><path d="M1382.5156,514.375 Q1382.6719,514.1563 1382.8594,514.0469 Q1383.0469,513.9375 1383.2656,513.9375 Q1383.6406,513.9375 1383.875,514.1953 Q1384.1094,514.4531 1384.1094,515.0625 L1384.1094,516.5156 Q1384.1094,517.125 1383.875,517.3906 Q1383.6406,517.6563 1383.2656,517.6563 Q1382.9219,517.6563 1382.7188,517.4531 Q1382.5156,517.2656 1382.4063,516.75 Q1382.3594,516.3906 1382.1719,516.2031 Q1381.8438,515.8281 1381.2344,515.6094 Q1380.625,515.3906 1380,515.3906 Q1379.2344,515.3906 1378.6016,515.7188 Q1377.9688,516.0469 1377.4766,516.7969 Q1376.9844,517.5469 1376.9844,518.5781 L1376.9844,519.6719 Q1376.9844,520.9063 1377.875,521.7266 Q1378.7656,522.5469 1380.3594,522.5469 Q1381.2969,522.5469 1381.9531,522.2969 Q1382.3438,522.1406 1382.7656,521.7031 Q1383.0313,521.4375 1383.1797,521.3594 Q1383.3281,521.2813 1383.5313,521.2813 Q1383.8594,521.2813 1384.1172,521.5391 Q1384.375,521.7969 1384.375,522.1406 Q1384.375,522.4844 1384.0313,522.8906 Q1383.5313,523.4688 1382.7344,523.7969 Q1381.6563,524.25 1380.3594,524.25 Q1378.8438,524.25 1377.6406,523.625 Q1376.6563,523.125 1375.9688,522.0547 Q1375.2813,520.9844 1375.2813,519.7031 L1375.2813,518.5469 Q1375.2813,517.2188 1375.8984,516.0703 Q1376.5156,514.9219 1377.6094,514.3047 Q1378.7031,513.6875 1379.9375,513.6875 Q1380.6719,513.6875 1381.3203,513.8516 Q1381.9688,514.0156 1382.5156,514.375 Z " fill="#000000"/><text fill="#000000" font-family="sans-serif" font-size="14" lengthAdjust="spacing" textLength="37" x="1400.25" y="524.2285">Order</text><line style="stroke:#181818;stroke-width:0.5;" x1="1308.5" x2="1496.5" y1="534.5" y2="534.5"/><rect fill="none" height="6" style="stroke:#C82930;stroke-width:1.0;" width="6" x="1315.5" y="545.8047"/><text fill="#000000" font-family="sans-serif" font-size="14" lengthAdjust="spacing" textLength="94" x="1327.5" y="553.0332">producer: User</text><rect fill="none" height="6" style="stroke:#C82930;stroke-width:1.0;" width="6" x="1315.5" y="563.4141"/><text fill="#000000" font-family="sans-serif" font-size="14" lengthAdjust="spacing" textLength="105" x="1327.5" y="570.6426">product: Product</text><rect fill="none" height="6" style="stroke:#C82930;stroke-width:1.0;" width="6" x="1315.5" y="581.0234"/><text fill="#000000" font-family="sans-serif" font-size="14" lengthAdjust="spacing" textLength="92" x="1327.5" y="588.252">qntOrder: float</text><rect fill="none" height="6" style="stroke:#C82930;stroke-width:1.0;" width="6" x="1315.5" y="598.6328"/><text fill="#000000" font-family="sans-serif" font-size="14" lengthAdjust="spacing" textLength="115" x="1327.5" y="605.8613">qntDelivered: float</text><rect fill="none" height="6" style="stroke:#C82930;stroke-width:1.0;" width="6" x="1315.5" y="616.2422"/><text fill="#000000" font-family="sans-serif" font-size="14" lengthAdjust="spacing" textLength="127" x="1327.5" y="623.4707">state: DeliverieState</text><ellipse cx="1318.5" cy="636.8516" fill="none" rx="3" ry="3" style="stroke:#038048;stroke-width:1.0;"/><text fill="#000000" font-family="sans-serif" font-size="14" lengthAdjust="spacing" textLength="164" x="1327.5" y="641.0801">float getQuantityDelivered</text><line style="stroke:#181818;stroke-width:0.5;" x1="1308.5" x2="1496.5" y1="648.1563" y2="648.1563"/></g><!--MD5=[ac6af55db1271819b1235bc15db70b90]
class DeliverieState--><g id="elem_DeliverieState"><rect codeLine="167" fill="#F1F1F1" height="100.8281" id="DeliverieState" rx="2.5" ry="2.5" style="stroke:#181818;stroke-width:0.5;" width="165" x="1320" y="692"/><ellipse cx="1355.25" cy="708" fill="#EB937F" rx="11" ry="11" style="stroke:#181818;stroke-width:1.0;"/><path d="M1354.1094,708.7969 L1354.1094,711.2969 L1358.4375,711.2969 L1358.4375,710.375 Q1358.4375,709.7656 1358.6797,709.5 Q1358.9219,709.2344 1359.2969,709.2344 Q1359.6719,709.2344 1359.9063,709.5 Q1360.1406,709.7656 1360.1406,710.375 L1360.1406,713 L1352.1406,713 Q1351.5156,713 1351.2578,712.7656 Q1351,712.5313 1351,712.1406 Q1351,711.7656 1351.2656,711.5313 Q1351.5313,711.2969 1352.1406,711.2969 L1352.4063,711.2969 L1352.4063,704.6406 L1352.1406,704.6406 Q1351.5156,704.6406 1351.2578,704.4063 Q1351,704.1719 1351,703.7813 Q1351,703.4063 1351.2578,703.1719 Q1351.5156,702.9375 1352.1406,702.9375 L1359.7656,702.9375 L1359.7656,705.5313 Q1359.7656,706.1406 1359.5391,706.3984 Q1359.3125,706.6563 1358.9219,706.6563 Q1358.5469,706.6563 1358.3125,706.3984 Q1358.0781,706.1406 1358.0781,705.5313 L1358.0781,704.6406 L1354.1094,704.6406 L1354.1094,707.0938 L1355.5938,707.0938 Q1355.5938,706.4375 1355.7188,706.25 Q1355.9844,705.8438 1356.4531,705.8438 Q1356.8281,705.8438 1357.0625,706.1016 Q1357.2969,706.3594 1357.2969,706.9688 L1357.2969,708.9375 Q1357.2969,709.4844 1357.1719,709.6719 Q1356.9063,710.0625 1356.4531,710.0625 Q1355.9844,710.0625 1355.7188,709.6563 Q1355.5938,709.4688 1355.5938,708.7969 L1354.1094,708.7969 Z " fill="#000000"/><text fill="#000000" font-family="sans-serif" font-size="14" lengthAdjust="spacing" textLength="88" x="1373.75" y="713.7285">DeliverieState</text><line style="stroke:#181818;stroke-width:0.5;" x1="1321" x2="1484" y1="724" y2="724"/><text fill="#000000" font-family="sans-serif" font-size="14" lengthAdjust="spacing" textLength="150" x="1326" y="742.5332">TOTALLY_STATISFIED</text><text fill="#000000" font-family="sans-serif" font-size="14" lengthAdjust="spacing" textLength="153" x="1326" y="760.1426">PARTIALY_STATISFIED</text><text fill="#000000" font-family="sans-serif" font-size="14" lengthAdjust="spacing" textLength="107" x="1326" y="777.752">NOT_SATISFIED</text><line style="stroke:#181818;stroke-width:0.5;" x1="1321" x2="1484" y1="784.8281" y2="784.8281"/></g><!--MD5=[d02eec4c3f201f410afc71bed62ec6b9]
class ProductStore--><g id="elem_ProductStore"><rect codeLine="174" fill="#F1F1F1" height="83.2188" id="ProductStore" rx="2.5" ry="2.5" style="stroke:#181818;stroke-width:0.5;" width="283" x="1738" y="1171"/><ellipse cx="1833.75" cy="1187" fill="#ADD1B2" rx="11" ry="11" style="stroke:#181818;stroke-width:1.0;"/><path d="M1836.5156,1182.875 Q1836.6719,1182.6563 1836.8594,1182.5469 Q1837.0469,1182.4375 1837.2656,1182.4375 Q1837.6406,1182.4375 1837.875,1182.6953 Q1838.1094,1182.9531 1838.1094,1183.5625 L1838.1094,1185.0156 Q1838.1094,1185.625 1837.875,1185.8906 Q1837.6406,1186.1563 1837.2656,1186.1563 Q1836.9219,1186.1563 1836.7188,1185.9531 Q1836.5156,1185.7656 1836.4063,1185.25 Q1836.3594,1184.8906 1836.1719,1184.7031 Q1835.8438,1184.3281 1835.2344,1184.1094 Q1834.625,1183.8906 1834,1183.8906 Q1833.2344,1183.8906 1832.6016,1184.2188 Q1831.9688,1184.5469 1831.4766,1185.2969 Q1830.9844,1186.0469 1830.9844,1187.0781 L1830.9844,1188.1719 Q1830.9844,1189.4063 1831.875,1190.2266 Q1832.7656,1191.0469 1834.3594,1191.0469 Q1835.2969,1191.0469 1835.9531,1190.7969 Q1836.3438,1190.6406 1836.7656,1190.2031 Q1837.0313,1189.9375 1837.1797,1189.8594 Q1837.3281,1189.7813 1837.5313,1189.7813 Q1837.8594,1189.7813 1838.1172,1190.0391 Q1838.375,1190.2969 1838.375,1190.6406 Q1838.375,1190.9844 1838.0313,1191.3906 Q1837.5313,1191.9688 1836.7344,1192.2969 Q1835.6563,1192.75 1834.3594,1192.75 Q1832.8438,1192.75 1831.6406,1192.125 Q1830.6563,1191.625 1829.9688,1190.5547 Q1829.2813,1189.4844 1829.2813,1188.2031 L1829.2813,1187.0469 Q1829.2813,1185.7188 1829.8984,1184.5703 Q1830.5156,1183.4219 1831.6094,1182.8047 Q1832.7031,1182.1875 1833.9375,1182.1875 Q1834.6719,1182.1875 1835.3203,1182.3516 Q1835.9688,1182.5156 1836.5156,1182.875 Z " fill="#000000"/><text fill="#000000" font-family="sans-serif" font-size="14" lengthAdjust="spacing" textLength="83" x="1854.25" y="1192.7285">ProductStore</text><line style="stroke:#181818;stroke-width:0.5;" x1="1739" x2="2020" y1="1203" y2="1203"/><rect fill="none" height="6" style="stroke:#C82930;stroke-width:1.0;" width="6" x="1746" y="1214.3047"/><text fill="#000000" font-family="sans-serif" font-size="14" lengthAdjust="spacing" textLength="228" x="1758" y="1221.5332">products: HashMap&lt;String,Product&gt;</text><line style="stroke:#181818;stroke-width:0.5;" x1="1739" x2="2020" y1="1228.6094" y2="1228.6094"/><ellipse cx="1749" cy="1242.9141" fill="#84BE84" rx="3" ry="3" style="stroke:#038048;stroke-width:1.0;"/><text fill="#000000" font-family="sans-serif" font-size="14" lengthAdjust="spacing" textLength="257" x="1758" y="1247.1426">Product getProduct(String productName)</text></g><!--MD5=[72136138052d025cffdce3c22fbd185f]
class Product--><g id="elem_Product"><rect codeLine="180" fill="#F1F1F1" height="65.6094" id="Product" rx="2.5" ry="2.5" style="stroke:#181818;stroke-width:0.5;" width="104" x="1827.5" y="1289.5"/><ellipse cx="1852.85" cy="1305.5" fill="#ADD1B2" rx="11" ry="11" style="stroke:#181818;stroke-width:1.0;"/><path d="M1855.6156,1301.375 Q1855.7719,1301.1563 1855.9594,1301.0469 Q1856.1469,1300.9375 1856.3656,1300.9375 Q1856.7406,1300.9375 1856.975,1301.1953 Q1857.2094,1301.4531 1857.2094,1302.0625 L1857.2094,1303.5156 Q1857.2094,1304.125 1856.975,1304.3906 Q1856.7406,1304.6563 1856.3656,1304.6563 Q1856.0219,1304.6563 1855.8188,1304.4531 Q1855.6156,1304.2656 1855.5063,1303.75 Q1855.4594,1303.3906 1855.2719,1303.2031 Q1854.9438,1302.8281 1854.3344,1302.6094 Q1853.725,1302.3906 1853.1,1302.3906 Q1852.3344,1302.3906 1851.7016,1302.7188 Q1851.0688,1303.0469 1850.5766,1303.7969 Q1850.0844,1304.5469 1850.0844,1305.5781 L1850.0844,1306.6719 Q1850.0844,1307.9063 1850.975,1308.7266 Q1851.8656,1309.5469 1853.4594,1309.5469 Q1854.3969,1309.5469 1855.0531,1309.2969 Q1855.4438,1309.1406 1855.8656,1308.7031 Q1856.1313,1308.4375 1856.2797,1308.3594 Q1856.4281,1308.2813 1856.6313,1308.2813 Q1856.9594,1308.2813 1857.2172,1308.5391 Q1857.475,1308.7969 1857.475,1309.1406 Q1857.475,1309.4844 1857.1313,1309.8906 Q1856.6313,1310.4688 1855.8344,1310.7969 Q1854.7563,1311.25 1853.4594,1311.25 Q1851.9438,1311.25 1850.7406,1310.625 Q1849.7563,1310.125 1849.0688,1309.0547 Q1848.3813,1307.9844 1848.3813,1306.7031 L1848.3813,1305.5469 Q1848.3813,1304.2188 1848.9984,1303.0703 Q1849.6156,1301.9219 1850.7094,1301.3047 Q1851.8031,1300.6875 1853.0375,1300.6875 Q1853.7719,1300.6875 1854.4203,1300.8516 Q1855.0688,1301.0156 1855.6156,1301.375 Z " fill="#000000"/><text fill="#000000" font-family="sans-serif" font-size="14" lengthAdjust="spacing" textLength="49" x="1869.15" y="1311.2285">Product</text><line style="stroke:#181818;stroke-width:0.5;" x1="1828.5" x2="1930.5" y1="1321.5" y2="1321.5"/><rect fill="none" height="6" style="stroke:#C82930;stroke-width:1.0;" width="6" x="1835.5" y="1332.8047"/><text fill="#000000" font-family="sans-serif" font-size="14" lengthAdjust="spacing" textLength="78" x="1847.5" y="1340.0332">name: string</text><line style="stroke:#181818;stroke-width:0.5;" x1="1828.5" x2="1930.5" y1="1347.1094" y2="1347.1094"/></g><!--MD5=[a0a016aa3af0433798f685385333b16d]
class StockStore--><g id="elem_StockStore"><rect codeLine="185" fill="#F1F1F1" height="118.4375" id="StockStore" rx="2.5" ry="2.5" style="stroke:#181818;stroke-width:0.5;" width="263" x="726" y="895.5"/><ellipse cx="818.75" cy="911.5" fill="#ADD1B2" rx="11" ry="11" style="stroke:#181818;stroke-width:1.0;"/><path d="M821.5156,907.375 Q821.6719,907.1563 821.8594,907.0469 Q822.0469,906.9375 822.2656,906.9375 Q822.6406,906.9375 822.875,907.1953 Q823.1094,907.4531 823.1094,908.0625 L823.1094,909.5156 Q823.1094,910.125 822.875,910.3906 Q822.6406,910.6563 822.2656,910.6563 Q821.9219,910.6563 821.7188,910.4531 Q821.5156,910.2656 821.4063,909.75 Q821.3594,909.3906 821.1719,909.2031 Q820.8438,908.8281 820.2344,908.6094 Q819.625,908.3906 819,908.3906 Q818.2344,908.3906 817.6016,908.7188 Q816.9688,909.0469 816.4766,909.7969 Q815.9844,910.5469 815.9844,911.5781 L815.9844,912.6719 Q815.9844,913.9063 816.875,914.7266 Q817.7656,915.5469 819.3594,915.5469 Q820.2969,915.5469 820.9531,915.2969 Q821.3438,915.1406 821.7656,914.7031 Q822.0313,914.4375 822.1797,914.3594 Q822.3281,914.2813 822.5313,914.2813 Q822.8594,914.2813 823.1172,914.5391 Q823.375,914.7969 823.375,915.1406 Q823.375,915.4844 823.0313,915.8906 Q822.5313,916.4688 821.7344,916.7969 Q820.6563,917.25 819.3594,917.25 Q817.8438,917.25 816.6406,916.625 Q815.6563,916.125 814.9688,915.0547 Q814.2813,913.9844 814.2813,912.7031 L814.2813,911.5469 Q814.2813,910.2188 814.8984,909.0703 Q815.5156,907.9219 816.6094,907.3047 Q817.7031,906.6875 818.9375,906.6875 Q819.6719,906.6875 820.3203,906.8516 Q820.9688,907.0156 821.5156,907.375 Z " fill="#000000"/><text fill="#000000" font-family="sans-serif" font-size="14" lengthAdjust="spacing" textLength="69" x="839.25" y="917.2285">StockStore</text><line style="stroke:#181818;stroke-width:0.5;" x1="727" x2="988" y1="927.5" y2="927.5"/><rect fill="none" height="6" style="stroke:#C82930;stroke-width:1.0;" width="6" x="734" y="938.8047"/><text fill="#000000" font-family="sans-serif" font-size="14" lengthAdjust="spacing" textLength="229" x="746" y="946.0332">stocks: ArrayList&lt;Pair&lt;User,Stock&gt;&gt;</text><ellipse cx="737" cy="959.4141" fill="none" rx="3" ry="3" style="stroke:#038048;stroke-width:1.0;"/><text fill="#000000" font-family="sans-serif" font-size="14" lengthAdjust="spacing" textLength="94" x="746" y="963.6426">Stock getStock</text><line style="stroke:#181818;stroke-width:0.5;" x1="727" x2="988" y1="970.7188" y2="970.7188"/><ellipse cx="737" cy="985.0234" fill="#84BE84" rx="3" ry="3" style="stroke:#038048;stroke-width:1.0;"/><text fill="#000000" font-family="sans-serif" font-size="14" lengthAdjust="spacing" textLength="237" x="746" y="989.252">boolean addProducer(User producer)</text><ellipse cx="737" cy="1002.6328" fill="#84BE84" rx="3" ry="3" style="stroke:#038048;stroke-width:1.0;"/><text fill="#000000" font-family="sans-serif" font-size="14" lengthAdjust="spacing" textLength="212" x="746" y="1006.8613">boolean existUser(User producer)</text></g><!--MD5=[a4cb0f987c11031dc931233a0e7767af]
class Stock--><g id="elem_Stock"><rect codeLine="192" fill="#F1F1F1" height="100.8281" id="Stock" rx="2.5" ry="2.5" style="stroke:#181818;stroke-width:0.5;" width="419" x="648" y="1089"/><ellipse cx="835.75" cy="1105" fill="#ADD1B2" rx="11" ry="11" style="stroke:#181818;stroke-width:1.0;"/><path d="M838.5156,1100.875 Q838.6719,1100.6563 838.8594,1100.5469 Q839.0469,1100.4375 839.2656,1100.4375 Q839.6406,1100.4375 839.875,1100.6953 Q840.1094,1100.9531 840.1094,1101.5625 L840.1094,1103.0156 Q840.1094,1103.625 839.875,1103.8906 Q839.6406,1104.1563 839.2656,1104.1563 Q838.9219,1104.1563 838.7188,1103.9531 Q838.5156,1103.7656 838.4063,1103.25 Q838.3594,1102.8906 838.1719,1102.7031 Q837.8438,1102.3281 837.2344,1102.1094 Q836.625,1101.8906 836,1101.8906 Q835.2344,1101.8906 834.6016,1102.2188 Q833.9688,1102.5469 833.4766,1103.2969 Q832.9844,1104.0469 832.9844,1105.0781 L832.9844,1106.1719 Q832.9844,1107.4063 833.875,1108.2266 Q834.7656,1109.0469 836.3594,1109.0469 Q837.2969,1109.0469 837.9531,1108.7969 Q838.3438,1108.6406 838.7656,1108.2031 Q839.0313,1107.9375 839.1797,1107.8594 Q839.3281,1107.7813 839.5313,1107.7813 Q839.8594,1107.7813 840.1172,1108.0391 Q840.375,1108.2969 840.375,1108.6406 Q840.375,1108.9844 840.0313,1109.3906 Q839.5313,1109.9688 838.7344,1110.2969 Q837.6563,1110.75 836.3594,1110.75 Q834.8438,1110.75 833.6406,1110.125 Q832.6563,1109.625 831.9688,1108.5547 Q831.2813,1107.4844 831.2813,1106.2031 L831.2813,1105.0469 Q831.2813,1103.7188 831.8984,1102.5703 Q832.5156,1101.4219 833.6094,1100.8047 Q834.7031,1100.1875 835.9375,1100.1875 Q836.6719,1100.1875 837.3203,1100.3516 Q837.9688,1100.5156 838.5156,1100.875 Z " fill="#000000"/><text fill="#000000" font-family="sans-serif" font-size="14" lengthAdjust="spacing" textLength="35" x="856.25" y="1110.7285">Stock</text><line style="stroke:#181818;stroke-width:0.5;" x1="649" x2="1066" y1="1121" y2="1121"/><rect fill="none" height="6" style="stroke:#C82930;stroke-width:1.0;" width="6" x="656" y="1132.3047"/><text fill="#000000" font-family="sans-serif" font-size="14" lengthAdjust="spacing" textLength="376" x="668" y="1139.5332">stock: HashMap&lt;Product,HashMap&lt;Integer,ProductStock&gt;&gt;</text><line style="stroke:#181818;stroke-width:0.5;" x1="649" x2="1066" y1="1146.6094" y2="1146.6094"/><ellipse cx="659" cy="1160.9141" fill="#84BE84" rx="3" ry="3" style="stroke:#038048;stroke-width:1.0;"/><text fill="#000000" font-family="sans-serif" font-size="14" lengthAdjust="spacing" textLength="305" x="668" y="1165.1426">float getStashAvailable(Product product, int day)</text><ellipse cx="659" cy="1178.5234" fill="#84BE84" rx="3" ry="3" style="stroke:#038048;stroke-width:1.0;"/><text fill="#000000" font-family="sans-serif" font-size="14" lengthAdjust="spacing" textLength="393" x="668" y="1182.752">void addProductStock(Product product, float provided, int day)</text></g><!--MD5=[6c7bb023babad207e2c8d90c7f82e89e]
class ProductStock--><g id="elem_ProductStock"><rect codeLine="198" fill="#F1F1F1" height="136.0469" id="ProductStock" rx="2.5" ry="2.5" style="stroke:#181818;stroke-width:0.5;" width="253" x="1276" y="1152.5"/><ellipse cx="1356.25" cy="1168.5" fill="#ADD1B2" rx="11" ry="11" style="stroke:#181818;stroke-width:1.0;"/><path d="M1359.0156,1164.375 Q1359.1719,1164.1563 1359.3594,1164.0469 Q1359.5469,1163.9375 1359.7656,1163.9375 Q1360.1406,1163.9375 1360.375,1164.1953 Q1360.6094,1164.4531 1360.6094,1165.0625 L1360.6094,1166.5156 Q1360.6094,1167.125 1360.375,1167.3906 Q1360.1406,1167.6563 1359.7656,1167.6563 Q1359.4219,1167.6563 1359.2188,1167.4531 Q1359.0156,1167.2656 1358.9063,1166.75 Q1358.8594,1166.3906 1358.6719,1166.2031 Q1358.3438,1165.8281 1357.7344,1165.6094 Q1357.125,1165.3906 1356.5,1165.3906 Q1355.7344,1165.3906 1355.1016,1165.7188 Q1354.4688,1166.0469 1353.9766,1166.7969 Q1353.4844,1167.5469 1353.4844,1168.5781 L1353.4844,1169.6719 Q1353.4844,1170.9063 1354.375,1171.7266 Q1355.2656,1172.5469 1356.8594,1172.5469 Q1357.7969,1172.5469 1358.4531,1172.2969 Q1358.8438,1172.1406 1359.2656,1171.7031 Q1359.5313,1171.4375 1359.6797,1171.3594 Q1359.8281,1171.2813 1360.0313,1171.2813 Q1360.3594,1171.2813 1360.6172,1171.5391 Q1360.875,1171.7969 1360.875,1172.1406 Q1360.875,1172.4844 1360.5313,1172.8906 Q1360.0313,1173.4688 1359.2344,1173.7969 Q1358.1563,1174.25 1356.8594,1174.25 Q1355.3438,1174.25 1354.1406,1173.625 Q1353.1563,1173.125 1352.4688,1172.0547 Q1351.7813,1170.9844 1351.7813,1169.7031 L1351.7813,1168.5469 Q1351.7813,1167.2188 1352.3984,1166.0703 Q1353.0156,1164.9219 1354.1094,1164.3047 Q1355.2031,1163.6875 1356.4375,1163.6875 Q1357.1719,1163.6875 1357.8203,1163.8516 Q1358.4688,1164.0156 1359.0156,1164.375 Z " fill="#000000"/><text fill="#000000" font-family="sans-serif" font-size="14" lengthAdjust="spacing" textLength="84" x="1376.75" y="1174.2285">ProductStock</text><line style="stroke:#181818;stroke-width:0.5;" x1="1277" x2="1528" y1="1184.5" y2="1184.5"/><rect fill="none" height="6" style="stroke:#C82930;stroke-width:1.0;" width="6" x="1284" y="1195.8047"/><text fill="#000000" font-family="sans-serif" font-size="14" lengthAdjust="spacing" textLength="46" x="1296" y="1203.0332">day: int</text><rect fill="none" height="6" style="stroke:#C82930;stroke-width:1.0;" width="6" x="1284" y="1213.4141"/><text fill="#000000" font-family="sans-serif" font-size="14" lengthAdjust="spacing" textLength="105" x="1296" y="1220.6426">product: Product</text><rect fill="none" height="6" style="stroke:#C82930;stroke-width:1.0;" width="6" x="1284" y="1231.0234"/><text fill="#000000" font-family="sans-serif" font-size="14" lengthAdjust="spacing" textLength="90" x="1296" y="1238.252">provided: float</text><rect fill="none" height="6" style="stroke:#C82930;stroke-width:1.0;" width="6" x="1284" y="1248.6328"/><text fill="#000000" font-family="sans-serif" font-size="14" lengthAdjust="spacing" textLength="69" x="1296" y="1255.8613">stash: float</text><line style="stroke:#181818;stroke-width:0.5;" x1="1277" x2="1528" y1="1262.9375" y2="1262.9375"/><ellipse cx="1287" cy="1277.2422" fill="#84BE84" rx="3" ry="3" style="stroke:#038048;stroke-width:1.0;"/><text fill="#000000" font-family="sans-serif" font-size="14" lengthAdjust="spacing" textLength="227" x="1296" y="1281.4707">boolean retrieveStock(float retrieve)</text></g><!--MD5=[2196d94f3bf76cb1d3467cba72a238c5]
class ExpListStore--><g id="elem_ExpListStore"><rect codeLine="210" fill="#F1F1F1" height="100.8281" id="ExpListStore" rx="2.5" ry="2.5" style="stroke:#181818;stroke-width:0.5;" width="276" x="159.5" y="636"/><ellipse cx="253.75" cy="652" fill="#ADD1B2" rx="11" ry="11" style="stroke:#181818;stroke-width:1.0;"/><path d="M256.5156,647.875 Q256.6719,647.6563 256.8594,647.5469 Q257.0469,647.4375 257.2656,647.4375 Q257.6406,647.4375 257.875,647.6953 Q258.1094,647.9531 258.1094,648.5625 L258.1094,650.0156 Q258.1094,650.625 257.875,650.8906 Q257.6406,651.1563 257.2656,651.1563 Q256.9219,651.1563 256.7188,650.9531 Q256.5156,650.7656 256.4063,650.25 Q256.3594,649.8906 256.1719,649.7031 Q255.8438,649.3281 255.2344,649.1094 Q254.625,648.8906 254,648.8906 Q253.2344,648.8906 252.6016,649.2188 Q251.9688,649.5469 251.4766,650.2969 Q250.9844,651.0469 250.9844,652.0781 L250.9844,653.1719 Q250.9844,654.4063 251.875,655.2266 Q252.7656,656.0469 254.3594,656.0469 Q255.2969,656.0469 255.9531,655.7969 Q256.3438,655.6406 256.7656,655.2031 Q257.0313,654.9375 257.1797,654.8594 Q257.3281,654.7813 257.5313,654.7813 Q257.8594,654.7813 258.1172,655.0391 Q258.375,655.2969 258.375,655.6406 Q258.375,655.9844 258.0313,656.3906 Q257.5313,656.9688 256.7344,657.2969 Q255.6563,657.75 254.3594,657.75 Q252.8438,657.75 251.6406,657.125 Q250.6563,656.625 249.9688,655.5547 Q249.2813,654.4844 249.2813,653.2031 L249.2813,652.0469 Q249.2813,650.7188 249.8984,649.5703 Q250.5156,648.4219 251.6094,647.8047 Q252.7031,647.1875 253.9375,647.1875 Q254.6719,647.1875 255.3203,647.3516 Q255.9688,647.5156 256.5156,647.875 Z " fill="#000000"/><text fill="#000000" font-family="sans-serif" font-size="14" lengthAdjust="spacing" textLength="79" x="274.25" y="657.7285">ExpListStore</text><line style="stroke:#181818;stroke-width:0.5;" x1="160.5" x2="434.5" y1="668" y2="668"/><rect fill="none" height="6" style="stroke:#C82930;stroke-width:1.0;" width="6" x="167.5" y="679.3047"/><text fill="#000000" font-family="sans-serif" font-size="14" lengthAdjust="spacing" textLength="220" x="179.5" y="686.5332">listExp: HashMap&lt;Integer, ExpList&gt;</text><line style="stroke:#181818;stroke-width:0.5;" x1="160.5" x2="434.5" y1="693.6094" y2="693.6094"/><ellipse cx="170.5" cy="707.9141" fill="#84BE84" rx="3" ry="3" style="stroke:#038048;stroke-width:1.0;"/><text fill="#000000" font-family="sans-serif" font-size="14" lengthAdjust="spacing" textLength="241" x="179.5" y="712.1426">addExpListNotRestrict(ExpList expList)</text><ellipse cx="170.5" cy="725.5234" fill="#84BE84" rx="3" ry="3" style="stroke:#038048;stroke-width:1.0;"/><text fill="#000000" font-family="sans-serif" font-size="14" lengthAdjust="spacing" textLength="250" x="179.5" y="729.752">addExpListProdRestrict(ExpList expList)</text></g><!--MD5=[a03e2bbd6af02fd9a8f212e92b23fc39]
class ExpList--><g id="elem_ExpList"><rect codeLine="216" fill="#F1F1F1" height="83.2188" id="ExpList" rx="2.5" ry="2.5" style="stroke:#181818;stroke-width:0.5;" width="188" x="203.5" y="772"/><ellipse cx="270.75" cy="788" fill="#ADD1B2" rx="11" ry="11" style="stroke:#181818;stroke-width:1.0;"/><path d="M273.5156,783.875 Q273.6719,783.6563 273.8594,783.5469 Q274.0469,783.4375 274.2656,783.4375 Q274.6406,783.4375 274.875,783.6953 Q275.1094,783.9531 275.1094,784.5625 L275.1094,786.0156 Q275.1094,786.625 274.875,786.8906 Q274.6406,787.1563 274.2656,787.1563 Q273.9219,787.1563 273.7188,786.9531 Q273.5156,786.7656 273.4063,786.25 Q273.3594,785.8906 273.1719,785.7031 Q272.8438,785.3281 272.2344,785.1094 Q271.625,784.8906 271,784.8906 Q270.2344,784.8906 269.6016,785.2188 Q268.9688,785.5469 268.4766,786.2969 Q267.9844,787.0469 267.9844,788.0781 L267.9844,789.1719 Q267.9844,790.4063 268.875,791.2266 Q269.7656,792.0469 271.3594,792.0469 Q272.2969,792.0469 272.9531,791.7969 Q273.3438,791.6406 273.7656,791.2031 Q274.0313,790.9375 274.1797,790.8594 Q274.3281,790.7813 274.5313,790.7813 Q274.8594,790.7813 275.1172,791.0391 Q275.375,791.2969 275.375,791.6406 Q275.375,791.9844 275.0313,792.3906 Q274.5313,792.9688 273.7344,793.2969 Q272.6563,793.75 271.3594,793.75 Q269.8438,793.75 268.6406,793.125 Q267.6563,792.625 266.9688,791.5547 Q266.2813,790.4844 266.2813,789.2031 L266.2813,788.0469 Q266.2813,786.7188 266.8984,785.5703 Q267.5156,784.4219 268.6094,783.8047 Q269.7031,783.1875 270.9375,783.1875 Q271.6719,783.1875 272.3203,783.3516 Q272.9688,783.5156 273.5156,783.875 Z " fill="#000000"/><text fill="#000000" font-family="sans-serif" font-size="14" lengthAdjust="spacing" textLength="45" x="291.25" y="793.7285">ExpList</text><line style="stroke:#181818;stroke-width:0.5;" x1="204.5" x2="390.5" y1="804" y2="804"/><rect fill="none" height="6" style="stroke:#C82930;stroke-width:1.0;" width="6" x="211.5" y="815.3047"/><text fill="#000000" font-family="sans-serif" font-size="14" lengthAdjust="spacing" textLength="143" x="223.5" y="822.5332">stockCopy: StockStore</text><rect fill="none" height="6" style="stroke:#C82930;stroke-width:1.0;" width="6" x="211.5" y="832.9141"/><text fill="#000000" font-family="sans-serif" font-size="14" lengthAdjust="spacing" textLength="162" x="223.5" y="840.1426">bundleCopy: BundleStore</text><line style="stroke:#181818;stroke-width:0.5;" x1="204.5" x2="390.5" y1="847.2188" y2="847.2188"/></g><!--MD5=[bd92bcef9bb2c0ec2d0c690472fc3676]
link User to UserType--><g id="link_User_UserType"><path codeLine="27" d="M1480.12,1040.34 C1535.67,1026.43 1612.26,1005.74 1678,982.5 C1730.08,964.09 1787.77,938.48 1827.84,919.82 " fill="none" id="User-to-UserType" style="stroke:#181818;stroke-width:1.0;stroke-dasharray:7.0,7.0;"/><polygon fill="#181818" points="1832.64,917.58,1822.7928,917.7629,1828.1094,919.6952,1826.1772,925.0118,1832.64,917.58" style="stroke:#181818;stroke-width:1.0;"/></g><!--MD5=[298c603ea9ef90de1de2462af7fbe32b]
link User to Coordinates--><g id="link_User_Coordinates"><path codeLine="28" d="M1480.08,1058.5 C1562.62,1058.5 1694.12,1058.5 1783.27,1058.5 " fill="none" id="User-to-Coordinates" style="stroke:#181818;stroke-width:1.0;stroke-dasharray:7.0,7.0;"/><polygon fill="#181818" points="1788.28,1058.5,1779.28,1054.5,1783.28,1058.5,1779.28,1062.5,1788.28,1058.5" style="stroke:#181818;stroke-width:1.0;"/></g><!--MD5=[7e7fe92a5523e911c73a9daab762bfae]
link MapGraph to CommonGraph--><g id="link_MapGraph_CommonGraph"><path codeLine="34" d="M1402.5,314.18 C1402.5,324.14 1402.5,334.1 1402.5,344.06 " fill="none" id="MapGraph-to-CommonGraph" style="stroke:#181818;stroke-width:1.0;"/><polygon fill="#181818" points="1402.5,349.27,1406.5,340.27,1402.5,344.27,1398.5,340.27,1402.5,349.27" style="stroke:#181818;stroke-width:1.0;"/></g><!--MD5=[5661fa8c3cd0390e3879ade4a50c9587]
link HubNetwork to User--><g id="link_HubNetwork_User"><path codeLine="53" d="M1147.29,175.36 C1127.13,190.56 1109.7,208.9 1097,231 C1076.69,266.36 1076.69,929.64 1097,965 C1140.23,1040.27 1244.77,1058.45 1319.51,1061.22 " fill="none" id="HubNetwork-to-User" style="stroke:#181818;stroke-width:1.0;"/><polygon fill="#181818" points="1324.84,1061.39,1315.9823,1057.084,1319.8429,1061.2187,1315.7082,1065.0793,1324.84,1061.39" style="stroke:#181818;stroke-width:1.0;"/></g><!--MD5=[b816f7ed01ac47a9220a6384560d1739]
link HubNetwork to Distance--><g id="link_HubNetwork_Distance"><path codeLine="54" d="M1147.29,175.36 C1127.13,190.56 1109.7,208.9 1097,231 C1063.49,289.34 1063.49,1383.66 1097,1442 C1131.22,1501.57 1202.9,1527.58 1268.24,1538.51 " fill="none" id="HubNetwork-to-Distance" style="stroke:#181818;stroke-width:1.0;"/><polygon fill="#181818" points="1273.33,1539.34,1265.072,1533.973,1268.3924,1538.5528,1263.8125,1541.8732,1273.33,1539.34" style="stroke:#181818;stroke-width:1.0;"/></g><!--MD5=[65b47c207f83b067f7ac515579588d48]
link HubNetwork to MapGraph--><g id="link_HubNetwork_MapGraph"><path codeLine="55" d="M1402.5,196.17 C1402.5,205.98 1402.5,215.8 1402.5,225.62 " fill="none" id="HubNetwork-to-MapGraph" style="stroke:#181818;stroke-width:1.0;"/><polygon fill="#181818" points="1402.5,230.75,1406.5,221.75,1402.5,225.75,1398.5,221.75,1402.5,230.75" style="stroke:#181818;stroke-width:1.0;"/></g><!--MD5=[73cb6a84480518af2d88af90c1d954ca]
link CommonGraph to Graph--><g id="link_CommonGraph_Graph"><path codeLine="68" d="M1491.73,408.5 C1590.18,408.5 1746.17,408.5 1826.66,408.5 " fill="none" id="CommonGraph-to-Graph" style="stroke:#181818;stroke-width:1.0;stroke-dasharray:7.0,7.0;"/><polygon fill="#181818" points="1831.85,408.5,1822.85,404.5,1826.85,408.5,1822.85,412.5,1831.85,408.5" style="stroke:#181818;stroke-width:1.0;"/></g><!--MD5=[627c719221e760b279cf7d2e52d47228]
link Graph to Edge--><g id="link_Graph_Edge"><path codeLine="75" d="M1927.16,408.5 C1968.82,408.5 2030.1,408.5 2075.61,408.5 " fill="none" id="Graph-to-Edge" style="stroke:#181818;stroke-width:1.0;stroke-dasharray:7.0,7.0;"/><polygon fill="#181818" points="2080.8,408.5,2071.8,404.5,2075.8,408.5,2071.8,412.5,2080.8,408.5" style="stroke:#181818;stroke-width:1.0;"/></g><!--MD5=[e0b9aaa73a37ec9b0cfe0f10a59bc4eb]
link WateringController to WateringFrequency--><g id="link_WateringController_WateringFrequency"><path codeLine="98" d="M588.12,339.5 C656.24,339.5 723.51,339.5 773.66,339.5 " fill="none" id="WateringController-to-WateringFrequency" style="stroke:#181818;stroke-width:1.0;stroke-dasharray:7.0,7.0;"/><polygon fill="#181818" points="778.77,339.5,769.77,335.5,773.77,339.5,769.77,343.5,778.77,339.5" style="stroke:#181818;stroke-width:1.0;"/></g><!--MD5=[d1e0f6ecc4becbdb384d024f9b519f21]
link UserStore to User--><g id="link_UserStore_User"><path codeLine="116" d="M1402.5,964.79 C1402.5,974.59 1402.5,984.4 1402.5,994.2 " fill="none" id="UserStore-to-User" style="stroke:#181818;stroke-width:1.0;"/><polygon fill="#181818" points="1402.5,999.33,1406.5,990.33,1402.5,994.33,1398.5,990.33,1402.5,999.33" style="stroke:#181818;stroke-width:1.0;"/></g><!--MD5=[b13e193ed3a37295ab0036841b3f51a1]
link DistanceStore to Distance--><g id="link_DistanceStore_Distance"><path codeLine="124" d="M1402.5,1441.6 C1402.5,1451.5 1402.5,1461.4 1402.5,1471.3 " fill="none" id="DistanceStore-to-Distance" style="stroke:#181818;stroke-width:1.0;"/><polygon fill="#181818" points="1402.5,1476.47,1406.5,1467.47,1402.5,1471.47,1398.5,1467.47,1402.5,1476.47" style="stroke:#181818;stroke-width:1.0;"/></g><!--MD5=[342bf4f2fa20b9769356576403832e0b]
link WateringControllerStore to WateringController--><g id="link_WateringControllerStore_WateringController"><path codeLine="133" d="M297.5,183.77 C297.5,193.58 297.5,203.38 297.5,213.19 " fill="none" id="WateringControllerStore-to-WateringController" style="stroke:#181818;stroke-width:1.0;"/><polygon fill="#181818" points="297.5,218.31,301.5,209.31,297.5,213.31,293.5,209.31,297.5,218.31" style="stroke:#181818;stroke-width:1.0;"/></g><!--MD5=[ebf6b95409f72d97203fa54df607e40f]
link BundleStore to Bundle--><g id="link_BundleStore_Bundle"><path codeLine="143" d="M857.5,651.67 C857.5,661.46 857.5,671.25 857.5,681.04 " fill="none" id="BundleStore-to-Bundle" style="stroke:#181818;stroke-width:1.0;"/><polygon fill="#181818" points="857.5,686.16,861.5,677.16,857.5,681.16,853.5,677.16,857.5,686.16" style="stroke:#181818;stroke-width:1.0;"/></g><!--MD5=[c7ab38aa8e406afbb6a532760d59b59f]
link Bundle to User--><g id="link_Bundle_User"><path codeLine="154" d="M1019.97,840.55 C1036.82,852.01 1052.91,864.68 1067,878.5 C1105.09,915.87 1084.8,949.83 1127,982.5 C1182.51,1025.48 1260.87,1044.16 1319.67,1052.28 " fill="none" id="Bundle-to-User" style="stroke:#181818;stroke-width:1.0;"/><polygon fill="#181818" points="1324.93,1052.98,1316.5337,1047.832,1319.9734,1052.3229,1315.4824,1055.7626,1324.93,1052.98" style="stroke:#181818;stroke-width:1.0;"/></g><!--MD5=[b3656b1f7e53d47e5fc60e32a79e8ddf]
link Bundle to Order--><g id="link_Bundle_Order"><path codeLine="155" d="M1041.58,701.46 C1128.8,671.91 1229.68,637.72 1302.41,613.08 " fill="none" id="Bundle-to-Order" style="stroke:#181818;stroke-width:1.0;"/><polygon fill="#181818" points="1307.16,611.47,1297.3511,610.5832,1302.4267,613.081,1299.9288,618.1566,1307.16,611.47" style="stroke:#181818;stroke-width:1.0;"/></g><!--MD5=[1750ff75d9253db7fcb660e16ea811f3]
link Bundle to DeliverieState--><g id="link_Bundle_DeliverieState"><path codeLine="156" d="M1041.58,756.42 C1133.73,752.86 1241.15,748.7 1314.48,745.87 " fill="none" id="Bundle-to-DeliverieState" style="stroke:#181818;stroke-width:1.0;"/><polygon fill="#181818" points="1319.71,745.66,1310.5573,742.0229,1314.714,745.8598,1310.8771,750.0165,1319.71,745.66" style="stroke:#181818;stroke-width:1.0;"/></g><!--MD5=[b35d23f56eded842f58ca904ec1c0748]
link ProductStore to Product--><g id="link_ProductStore_Product"><path codeLine="178" d="M1879.5,1254.26 C1879.5,1264.24 1879.5,1274.22 1879.5,1284.2 " fill="none" id="ProductStore-to-Product" style="stroke:#181818;stroke-width:1.0;"/><polygon fill="#181818" points="1879.5,1289.41,1883.5,1280.41,1879.5,1284.41,1875.5,1280.41,1879.5,1289.41" style="stroke:#181818;stroke-width:1.0;"/></g><!--MD5=[2ddaade188efaf20a20422233ad43cc2]
link StockStore to Stock--><g id="link_StockStore_Stock"><path codeLine="206" d="M857.5,1013.57 C857.5,1037.02 857.5,1060.46 857.5,1083.91 " fill="none" id="StockStore-to-Stock" style="stroke:#181818;stroke-width:1.0;"/><polygon fill="#181818" points="857.5,1088.91,861.5,1079.91,857.5,1083.91,853.5,1079.91,857.5,1088.91" style="stroke:#181818;stroke-width:1.0;"/></g><!--MD5=[d7d6a206614885894ced9d02697f9807]
link Stock to ProductStock--><g id="link_Stock_ProductStock"><path codeLine="207" d="M1067.27,1170.64 C1135.74,1180.86 1209.85,1191.91 1270.84,1201.01 " fill="none" id="Stock-to-ProductStock" style="stroke:#181818;stroke-width:1.0;"/><polygon fill="#181818" points="1275.95,1201.77,1267.6444,1196.4768,1271.0055,1201.0269,1266.4555,1204.388,1275.95,1201.77" style="stroke:#181818;stroke-width:1.0;"/></g><!--MD5=[c7094af273b01b2c8ed1137ff938a78a]
link ProductStock to Product--><g id="link_ProductStock_Product"><path codeLine="208" d="M1529.23,1247.5 C1624.38,1267.93 1750.54,1295.02 1822.27,1310.43 " fill="none" id="ProductStock-to-Product" style="stroke:#181818;stroke-width:1.0;"/><polygon fill="#181818" points="1827.34,1311.51,1819.3698,1305.7241,1822.4495,1310.4692,1817.7045,1313.5489,1827.34,1311.51" style="stroke:#181818;stroke-width:1.0;"/></g><!--MD5=[a740ce88785d53db5f8050e10327b8d0]
link ExpListStore to ExpList--><g id="link_ExpListStore_ExpList"><path codeLine="221" d="M297.5,737.16 C297.5,747 297.5,756.84 297.5,766.68 " fill="none" id="ExpListStore-to-ExpList" style="stroke:#181818;stroke-width:1.0;"/><polygon fill="#181818" points="297.5,771.83,301.5,762.83,297.5,766.83,293.5,762.83,297.5,771.83" style="stroke:#181818;stroke-width:1.0;"/></g><!--MD5=[583900c5efea2f8141540c34fd70d773]
link ExpList to StockStore--><g id="link_ExpList_StockStore"><path codeLine="222" d="M391.58,837.02 C481.46,859.73 618.58,894.38 720.64,920.17 " fill="none" id="ExpList-to-StockStore" style="stroke:#181818;stroke-width:1.0;"/><polygon fill="#181818" points="725.78,921.47,718.0231,915.4012,720.9301,920.254,716.0774,923.161,725.78,921.47" style="stroke:#181818;stroke-width:1.0;"/></g><!--MD5=[c2b37991b820397a97eabf62e222bb01]
link ExpList to BundleStore--><g id="link_ExpList_BundleStore"><path codeLine="223" d="M391.53,811.88 C451.83,806.86 529.7,792.58 588,754.5 C626.71,729.21 611.86,698.35 648,669.5 C657.3,662.07 667.34,655.2 677.8,648.84 " fill="none" id="ExpList-to-BundleStore" style="stroke:#181818;stroke-width:1.0;"/><polygon fill="#181818" points="682.31,646.15,672.53,647.3122,678.0125,648.7057,676.619,654.1882,682.31,646.15" style="stroke:#181818;stroke-width:1.0;"/></g><!--MD5=[3d12b92b24b38661b6c55f839ca979e1]
@startuml

left to right direction

class Distance{
    -locID1:String
    -locID2:String
    -distance:int
    +cmp: {static} final Comparator<Distance>
    +sum: {static} final BinaryOperator<Distance>
}

class Coordinates{
    -MAX_LAT: {static} final double
    -MIN_LAT: {static} final double
    -MAX_LONG: {static} final double
    -MIN_LONG: {static} final double 
    -latitude: double
    -longitude: double
}

class User{
    -userID: String
    -userType: UserType
    -coords:Coordinates
    -locationID: String
}
User ..> UserType
User ..> Coordinates

class MapGraph{
    -mapVertices: final Map<V, MapVertex<V, E>> 
}

MapGraph -> CommonGraph

'Localization
 enum UserType{
     PRODUCER
     CLIENT
     COMPANY
 }

class HubNetwork{
    +distCmp: {static} final Comparator<Distance>
    +distSum: {static} final BinaryOperator<Distance>
    +distZero: {static} final Distance
    +boolean addVertices(Collection<User> users)
    +boolean addEdges(Collection<Triplet<User, User, Distance>> dists)
    +Distance shortestPath(User origin, User dest, LinkedList<User> path)
    +List<LinkedList<User>> shortestPaths(User origin, ArrayList<Distance> dists)
    +LinkedList<Distance> shortestPathsForPool(User origin, List<User> pool)
}
HubNetwork -> User
HubNetwork -> Distance
HubNetwork -> MapGraph

class MapGraph<V,E>{
    -mapVertices: Map<V,MapVertex<V,E>>

}

class CommonGraph<V,E>{
    #int numVerts;
    #int numEdges;
    #final boolean isDirected;
    #ArrayList<V> vertices;    
}
CommonGraph ..> Graph

interface Graph<V,E>{
}

'implements ..>
'extends ->
Graph ..> Edge


class Edge{
    -V final vOrig;
    -V final vDest;
    -E:final weight;
}

class WateringController{
    -startedDate: final LocalDate
    -endDate: final LocalDate
    -wateringHours: final SortedSet<LocalTime>
    -plotData: final LinkedHashMap<String,Pair<Integer, WateringFrequency>>
    +boolean addWateringHours(LocalTime time)
    +boolean addWateringHour(LocalTime time)
    +boolean addPlotData(Triplet<String plotID, int duration, WateringFrequency frequency>)
    +boolean addPlotData(String plotID, int duration, WateringFrequency frequency)
    +LocalDate[] getValidRange()
    -Option<LocalTime> previousWateringHour(LocalTime time)
    +List<Pair<String,Long>> currentlyWatering()
}

WateringController ..> WateringFrequency


enum WateringFrequency{
    EVERYDAY
    ODD_DAYS
    EVEN_DAYS
}


'STORES
class UserStore{
    -users: Map<String,User>
    +boolean addUser(User user)
    +boolean addUser(String userID, String locationID, double latitude, double longitude)
    +boolean addUser(Collection <User> usersCollection)
    +Optional<User> getUser(String key)
}
UserStore -> User

class DistanceStore{
    -distances:final Set<Distance>
    +boolean addDistance(Distance dist)
    +boolean addDistance(String org, String dest, int distance)
    +boolean addDistances(Collection <Distance> dists)
}
DistanceStore -> Distance

class WateringControllerStore{
    -store: LinkedHashMap<LocalDate, WateringController>
    +boolean addController(WateringController ctrl)
    +boolean addController(Collection<LocalTime> times)
    +int size()
    +boolean clearExpired()
}
WateringControllerStore -> WateringController

class BundleStore{
     - bundles: HashMap<Integer,ArrayList<Bundle>>
     + boolean addBundle(Bundel newBundle)
     + ArrayList<Bundle> getBundles(int day)
     + HashMap<Integer,ArrayList<Bundle>> getBundles()
     + BundleStore getCopy()
}

BundleStore -> Bundle

class Bundle{
    - day: int
    - client: User
    - orders: ArrayList<Order>
    - state: DeliverieState
    + DeliverieState getState()
    + boolean addNewOrder(Product product, float quantity)
}

Bundle - -> User
Bundle - -> Order
Bundle - -> DeliverieState

class Order{
    - producer: User
    - product: Product
    - qntOrder: float 
    - qntDelivered: float
    - state: DeliverieState
    + float getQuantityDelivered
}

enum DeliverieState{
    TOTALLY_STATISFIED
    PARTIALY_STATISFIED
    NOT_SATISFIED
}


class ProductStore{
    - products: HashMap<String,Product>
    + Product getProduct(String productName)
}
ProductStore -> Product

class Product{
    - name: string 
}


class StockStore{
    - stocks: ArrayList<Pair<User,Stock>>
    + boolean addProducer(User producer)
    + boolean existUser(User producer)
    + Stock getStock
}

class Stock{
    - stock: HashMap<Product,HashMap<Integer,ProductStock>>
    + float getStashAvailable(Product product, int day)
    + void addProductStock(Product product, float provided, int day)
}

class ProductStock{
    - day: int
    - product: Product
    - provided: float
    - stash: float
    + boolean retrieveStock(float retrieve)
}

StockStore -> Stock
Stock - -> ProductStock
ProductStock - -> Product

class ExpListStore{
    - listExp: HashMap<Integer, ExpList>
    + addExpListNotRestrict(ExpList expList)
    + addExpListProdRestrict(ExpList expList)
}

class ExpList{
    - stockCopy: StockStore
    - bundleCopy: BundleStore
}

ExpListStore -> ExpList
ExpList - -> StockStore
ExpList - -> BundleStore



@enduml

@startuml

left to right direction

class Distance{
    -locID1:String
    -locID2:String
    -distance:int
    +cmp: {static} final Comparator<Distance>
    +sum: {static} final BinaryOperator<Distance>
}

class Coordinates{
    -MAX_LAT: {static} final double
    -MIN_LAT: {static} final double
    -MAX_LONG: {static} final double
    -MIN_LONG: {static} final double 
    -latitude: double
    -longitude: double
}

class User{
    -userID: String
    -userType: UserType
    -coords:Coordinates
    -locationID: String
}
User ..> UserType
User ..> Coordinates

class MapGraph{
    -mapVertices: final Map<V, MapVertex<V, E>> 
}

MapGraph -> CommonGraph

 enum UserType{
     PRODUCER
     CLIENT
     COMPANY
 }

class HubNetwork{
    +distCmp: {static} final Comparator<Distance>
    +distSum: {static} final BinaryOperator<Distance>
    +distZero: {static} final Distance
    +boolean addVertices(Collection<User> users)
    +boolean addEdges(Collection<Triplet<User, User, Distance>> dists)
    +Distance shortestPath(User origin, User dest, LinkedList<User> path)
    +List<LinkedList<User>> shortestPaths(User origin, ArrayList<Distance> dists)
    +LinkedList<Distance> shortestPathsForPool(User origin, List<User> pool)
}
HubNetwork -> User
HubNetwork -> Distance
HubNetwork -> MapGraph

class MapGraph<V,E>{
    -mapVertices: Map<V,MapVertex<V,E>>

}

class CommonGraph<V,E>{
    #int numVerts;
    #int numEdges;
    #final boolean isDirected;
    #ArrayList<V> vertices;    
}
CommonGraph ..> Graph

interface Graph<V,E>{
}

Graph ..> Edge


class Edge{
    -V final vOrig;
    -V final vDest;
    -E:final weight;
}

class WateringController{
    -startedDate: final LocalDate
    -endDate: final LocalDate
    -wateringHours: final SortedSet<LocalTime>
    -plotData: final LinkedHashMap<String,Pair<Integer, WateringFrequency>>
    +boolean addWateringHours(LocalTime time)
    +boolean addWateringHour(LocalTime time)
    +boolean addPlotData(Triplet<String plotID, int duration, WateringFrequency frequency>)
    +boolean addPlotData(String plotID, int duration, WateringFrequency frequency)
    +LocalDate[] getValidRange()
    -Option<LocalTime> previousWateringHour(LocalTime time)
    +List<Pair<String,Long>> currentlyWatering()
}

WateringController ..> WateringFrequency


enum WateringFrequency{
    EVERYDAY
    ODD_DAYS
    EVEN_DAYS
}


class UserStore{
    -users: Map<String,User>
    +boolean addUser(User user)
    +boolean addUser(String userID, String locationID, double latitude, double longitude)
    +boolean addUser(Collection <User> usersCollection)
    +Optional<User> getUser(String key)
}
UserStore -> User

class DistanceStore{
    -distances:final Set<Distance>
    +boolean addDistance(Distance dist)
    +boolean addDistance(String org, String dest, int distance)
    +boolean addDistances(Collection <Distance> dists)
}
DistanceStore -> Distance

class WateringControllerStore{
    -store: LinkedHashMap<LocalDate, WateringController>
    +boolean addController(WateringController ctrl)
    +boolean addController(Collection<LocalTime> times)
    +int size()
    +boolean clearExpired()
}
WateringControllerStore -> WateringController

class BundleStore{
     - bundles: HashMap<Integer,ArrayList<Bundle>>
     + boolean addBundle(Bundel newBundle)
     + ArrayList<Bundle> getBundles(int day)
     + HashMap<Integer,ArrayList<Bundle>> getBundles()
     + BundleStore getCopy()
}

BundleStore -> Bundle

class Bundle{
    - day: int
    - client: User
    - orders: ArrayList<Order>
    - state: DeliverieState
    + DeliverieState getState()
    + boolean addNewOrder(Product product, float quantity)
}

Bundle - -> User
Bundle - -> Order
Bundle - -> DeliverieState

class Order{
    - producer: User
    - product: Product
    - qntOrder: float 
    - qntDelivered: float
    - state: DeliverieState
    + float getQuantityDelivered
}

enum DeliverieState{
    TOTALLY_STATISFIED
    PARTIALY_STATISFIED
    NOT_SATISFIED
}


class ProductStore{
    - products: HashMap<String,Product>
    + Product getProduct(String productName)
}
ProductStore -> Product

class Product{
    - name: string 
}


class StockStore{
    - stocks: ArrayList<Pair<User,Stock>>
    + boolean addProducer(User producer)
    + boolean existUser(User producer)
    + Stock getStock
}

class Stock{
    - stock: HashMap<Product,HashMap<Integer,ProductStock>>
    + float getStashAvailable(Product product, int day)
    + void addProductStock(Product product, float provided, int day)
}

class ProductStock{
    - day: int
    - product: Product
    - provided: float
    - stash: float
    + boolean retrieveStock(float retrieve)
}

StockStore -> Stock
Stock - -> ProductStock
ProductStock - -> Product

class ExpListStore{
    - listExp: HashMap<Integer, ExpList>
    + addExpListNotRestrict(ExpList expList)
    + addExpListProdRestrict(ExpList expList)
}

class ExpList{
    - stockCopy: StockStore
    - bundleCopy: BundleStore
}

ExpListStore -> ExpList
ExpList - -> StockStore
ExpList - -> BundleStore



@enduml

PlantUML version 1.2022.7(Mon Aug 22 18:01:30 BST 2022)
(GPL source distribution)
Java Runtime: Java(TM) SE Runtime Environment
JVM: Java HotSpot(TM) 64-Bit Server VM
Default Encoding: Cp1252
Language: en
Country: US
--></g></svg>